<svg xmlns="http://www.w3.org/2000/svg" xmlns:xlink="http://www.w3.org/1999/xlink" width="867.968" height="614.747" viewBox="0 0 867.968 614.747">
  <defs>
    <linearGradient id="linear-gradient" x1="0.5" y1="1" x2="0.5" gradientUnits="objectBoundingBox">
      <stop offset="0" stop-color="gray" stop-opacity="0.251"/>
      <stop offset="0.54" stop-color="gray" stop-opacity="0.122"/>
      <stop offset="1" stop-color="gray" stop-opacity="0.102"/>
    </linearGradient>
    <linearGradient id="linear-gradient-2" x1="0.5" y1="1" x2="0.5" y2="0" xlink:href="#linear-gradient"/>
  </defs>
  <g id="undraw_medicine_b1ol" transform="translate(0.005 0.006)">
    <ellipse id="Ellipse_79" data-name="Ellipse 79" cx="76.527" cy="12.291" rx="76.527" ry="12.291" transform="translate(212.106 589.813)" fill="#6c63ff" opacity="0.1"/>
    <ellipse id="Ellipse_80" data-name="Ellipse 80" cx="95.493" cy="12.291" rx="95.493" ry="12.291" transform="translate(609.128 590.159)" fill="#6c63ff" opacity="0.1"/>
    <path id="Path_675" data-name="Path 675" d="M60.634,396.83h79.707V505.471H66.469c-.2,1.115-.385,2.238-.589,3.361h74.461v87.616c-.134-.039-.251-.086-.377-.133-2.1-.833-4.194-1.712-6.283-2.655l-1.335-.6q-3.141-1.484-6.283-3.141c-.73-.385-1.461-.785-2.183-1.194a130.7,130.7,0,0,1-31.321-24.472c-.267-.259-.518-.534-.785-.785-1.272-1.382-2.521-2.78-3.731-4.21l-1.335-1.571c-1.429-1.751-2.812-3.55-4.155-5.372-.2-.267-.385-.534-.589-.785A116.927,116.927,0,0,1,68.456,527.1c-.11-.259-.2-.542-.306-.785q-1.618-4.162-2.867-8.4c-.361-1.186-.707-2.356-1.005-3.589-.11-.361-.2-.715-.291-1.068C59.526,495.842,59,477.755,59,459.793V453.51c0-7.265.086-14.576.212-21.88,0-1.893.079-3.778.118-5.678q.165-7.233.471-14.467c.047-1.343.11-2.678.181-4.013a22.732,22.732,0,0,1,.118-2.309C60.288,402.367,60.445,399.594,60.634,396.83Z" transform="translate(-49.661 -131.218)" fill="#6c63ff" opacity="0.1"/>
    <path id="Path_676" data-name="Path 676" d="M150.622,227.709H106.9A331.437,331.437,0,0,1,130.155,195.7c6.495-7.979,13.351-15.754,20.467-23.247Z" transform="translate(-59.942 -83.06)" fill="#6c63ff" opacity="0.1"/>
    <path id="Path_677" data-name="Path 677" d="M140.856,247.09V361.33H61.4c0-.33.055-.668.079-1,.071-.9.141-1.806.22-2.7.086-1.052.181-2.113.283-3.141s.212-2.285.33-3.424.228-2.293.361-3.432.251-2.278.393-3.409.267-2.278.416-3.409c.118-.942.243-1.877.369-2.819.181-1.327.369-2.662.573-3.982a3.672,3.672,0,0,1,.086-.589,271.657,271.657,0,0,1,5.851-28.682,212.115,212.115,0,0,1,9.856-29.059,218.142,218.142,0,0,1,14.828-28.556Z" transform="translate(-50.176 -99.08)" fill="#6c63ff" opacity="0.1"/>
    <path id="Path_678" data-name="Path 678" d="M186.8,324.234V432.882H357.045V324.234Zm0,112v93.3c.974.2,1.94.4,2.9.565,1.3.251,2.6.479,3.927.675.251.039.51.078.785.1.518.086,1.052.157,1.571.228,1.312.181,2.615.33,3.927.448.62.063,1.249.118,1.877.165l1.516.118h0c.825.063,1.641.11,2.45.134.5,0,1.005.047,1.524.063h5.6c.675,0,1.351,0,2.018-.063h.047a10.581,10.581,0,0,0,1.406-.063,3.293,3.293,0,0,0,.393,0,8.117,8.117,0,0,0,1.162-.055h.275l2.631-.2c.864-.079,1.736-.181,2.615-.275l1.791-.212a156.646,156.646,0,0,0,21.558-4.587c15.88-4.43,31.415-10.626,47.287-15.166,20.522-5.851,43.2-8.725,63.026-1.571V436.236ZM357.045,203.279V58.636a218.86,218.86,0,0,0-55.314,6.487c-43.109,10.83-81.789,34.321-114.931,64.322v73.825h8.545v3.354H186.8V320.88H357.045V206.632H230.427v-3.354Zm218.671-48.858c-10.665-.377-21.268-3.754-30.857-8.969-18.338-9.974-32.986-25.375-49.353-38.373C461.5,80.006,419.325,63.671,376.059,59.618v143.66H619.092l.6-.636Zm22.14-3.927,23.475,25.76V143.739c-7.862.974-14.749,3.291-23.443,6.723Zm23.475,402.213V436.236H571.31c-.134-.495-.267-1-.424-1.5.149.5.275,1.005.416,1.5H376.09v84.231c1.853,1.374,3.683,2.82,5.5,4.288h0c1.956,1.571,3.888,3.228,5.827,4.854l1.956,1.618c.935.785,1.877,1.571,2.827,2.309q2.827,2.293,5.71,4.524c.95.785,1.924,1.492,2.89,2.23a393.649,393.649,0,0,0,48.4,31.658q5.678,3.141,11.459,6.134c2.568,1.312,5.152,2.615,7.744,3.88q5.843,2.851,11.781,5.5h0a432.613,432.613,0,0,0,114.664,33.4q13.186,1.948,26.475,3.063V552.7h.785ZM376.09,206.632V320.88H621.362V206.632Zm0,117.6V432.882H621.362V324.234ZM640.4,143.6v36.268l29.962-32.876q-14.891-2.4-29.962-3.432Zm0,180.675V432.882H878.956V324.234ZM878.085,561.33l.84-125.094H640.4V625.173a427.8,427.8,0,0,0,46.1-.55h.267q11-.691,21.888-2.011h.165A403.087,403.087,0,0,0,821.287,592.6M924.956,342.124c-.9-2.113-1.83-4.21-2.78-6.283-1.775-3.927-3.652-7.744-5.584-11.561H897.978v108.6h47.06c-.024-30.755-7.807-62.17-20.059-90.8Zm-26.978,94.15v107.6A154.135,154.135,0,0,0,930.5,500.008c9.7-20.011,14.137-41.68,14.5-63.749Zm0-143.66v28.273h16.87A306.3,306.3,0,0,0,898,292.575Zm-161.787-127.7c-1.241-.471-2.482-.95-3.731-1.414a340.548,340.548,0,0,0-40.3-12.11l-45.85,50.319h0l-.88.935.589.644H809.208a349.028,349.028,0,0,0-72.992-38.413Zm77.8,41.758H643.745l-3.346,3.063V320.88H878.988V267.043a339.91,339.91,0,0,0-64.974-60.411Z" transform="translate(-77.09 -58.63)" fill="#6c63ff" opacity="0.1"/>
    <path id="Path_679" data-name="Path 679" d="M140.856,320.46v56.617H61.4c0-.33.055-.668.079-1,.071-.9.141-1.806.22-2.7.086-1.052.181-2.113.283-3.141s.212-2.285.33-3.424.228-2.293.361-3.432.251-2.278.393-3.409.267-2.278.416-3.409c.118-.942.243-1.877.369-2.82.181-1.327.369-2.662.573-3.982a3.672,3.672,0,0,1,.086-.589,271.657,271.657,0,0,1,5.851-28.682Z" transform="translate(-50.176 -114.827)" fill="#6c63ff" opacity="0.1"/>
    <path id="Path_680" data-name="Path 680" d="M60.634,396.83h79.707V505.471H66.469c-.2,1.115-.385,2.238-.589,3.361h74.461v87.616c-.134-.039-.251-.086-.377-.133-2.1-.833-4.194-1.712-6.283-2.655l-1.335-.6q-3.141-1.484-6.283-3.141c-.73-.385-1.461-.785-2.183-1.194a130.7,130.7,0,0,1-31.321-24.472c-.267-.259-.518-.534-.785-.785-1.272-1.382-2.521-2.78-3.731-4.21l-1.335-1.571c-1.429-1.751-2.812-3.55-4.155-5.372-.2-.267-.385-.534-.589-.785A116.927,116.927,0,0,1,68.456,527.1c-.11-.259-.2-.542-.306-.785q-1.618-4.162-2.867-8.4c-.361-1.186-.707-2.356-1.005-3.589-.11-.361-.2-.715-.291-1.068C59.526,495.842,59,477.755,59,459.793V453.51c0-7.265.086-14.576.212-21.88,0-1.893.079-3.778.118-5.678q.165-7.233.471-14.467c.047-1.343.11-2.678.181-4.013a22.732,22.732,0,0,1,.118-2.309C60.288,402.367,60.445,399.594,60.634,396.83Z" transform="translate(-49.661 -131.218)" fill="#6c63ff" opacity="0.1"/>
    <path id="Path_681" data-name="Path 681" d="M199.492,200.223v97.889H139.56V200.223H148.1V167.08H183.18v33.143Z" transform="translate(-29.85 -35.861)" fill="#6c63ff" opacity="0.1"/>
    <rect id="Rectangle_403" data-name="Rectangle 403" width="59.924" height="108.641" transform="translate(109.717 265.604)" fill="#6c63ff" opacity="0.1"/>
    <path id="Path_682" data-name="Path 682" d="M186.8,539.44h59.932v90.318a156.379,156.379,0,0,1-21.558,4.579l-1.791.22c-.88.1-1.751.188-2.615.275s-1.759.149-2.631.2h-.275c-.377,0-.785.047-1.154.055h-.4c-.471,0-.942.047-1.414.063h0c-.668.039-1.335.047-2.018.055h-5.56l-1.516-.055c-.785,0-1.634-.086-2.45-.141h0l-1.508-.11-1.877-.173c-1.319-.118-2.631-.267-3.927-.448l-1.571-.22-.785-.11c-1.312-.2-2.607-.424-3.927-.675-.966-.165-1.924-.369-2.9-.565Z" transform="translate(-77.09 -161.827)" fill="#6c63ff" opacity="0.1"/>
    <rect id="Rectangle_404" data-name="Rectangle 404" width="49.416" height="109.442" transform="translate(494.856 152.801)" fill="#6c63ff" opacity="0.1"/>
    <path id="Path_683" data-name="Path 683" d="M625.86,338.19V446.838H380.58V399.975H511.227V427.62h65.209V338.19Z" transform="translate(-81.58 -72.586)" fill="#6c63ff" opacity="0.1"/>
    <path id="Path_684" data-name="Path 684" d="M673.877,655.516h-.785v71.273q-13.273-1.123-26.467-3.055a432.637,432.637,0,0,1-114.711-33.473q-15.81-7.115-30.975-15.535a395.253,395.253,0,0,1-48.41-31.658q-5.78-4.43-11.411-9.063c-2.6-2.144-5.183-4.343-7.8-6.479-1.814-1.469-3.644-2.914-5.5-4.3v-84.2h195.2c-.133-.5-.267-1.005-.408-1.5.149.495.291,1,.424,1.5h50.052V655.469C673.359,655.477,673.618,655.5,673.877,655.516Z" transform="translate(-128.82 -161.417)" fill="#6c63ff" opacity="0.1"/>
    <path id="Path_685" data-name="Path 685" d="M895.42,231.931h-32.2V221.925h14.435v-29.8q1.877.683,3.738,1.406v28.4H895.42Z" transform="translate(-222.269 -87.282)" fill="#6c63ff" opacity="0.1"/>
    <path id="Path_686" data-name="Path 686" d="M951.781,361.33H793.7l.055.039-.071-.039H764.36V251.889h8.309v80.893h37.973V284.874H842.01V247.09h32.2v37.816h31.368v47.908h46.2Z" transform="translate(-201.051 -99.08)" fill="#6c63ff" opacity="0.1"/>
    <path id="Path_687" data-name="Path 687" d="M764.36,396.82V505.468H951.781V396.82Zm238.3,236.538.259-86H951.781V508.877H764.36V697.759a427.8,427.8,0,0,0,46.1-.55h.267q11-.691,21.888-2.011h.165A403.087,403.087,0,0,0,945.247,665.19" transform="translate(-201.051 -131.216)" fill="#6c63ff" opacity="0.1"/>
    <path id="Path_688" data-name="Path 688" d="M1095.669,539.44h43.722c-.385,22.061-4.814,43.73-14.506,63.741a154.186,154.186,0,0,1-32.514,43.863V577.931h3.3Z" transform="translate(-271.451 -161.827)" fill="#6c63ff" opacity="0.1"/>
    <path id="Path_689" data-name="Path 689" d="M1140.315,510.347H1096.57v-90.8h23.671C1132.493,448.177,1140.276,479.592,1140.315,510.347Z" transform="translate(-272.352 -136.095)" fill="#6c63ff" opacity="0.1"/>
    <rect id="Rectangle_405" data-name="Rectangle 405" width="26.475" height="34.313" transform="translate(517.805 183.226)" fill="#6c63ff" opacity="0.1"/>
    <rect id="Rectangle_406" data-name="Rectangle 406" width="26.475" height="7.901" transform="translate(517.805 254.349)" fill="#6c63ff" opacity="0.1"/>
    <rect id="Rectangle_407" data-name="Rectangle 407" width="26.475" height="23.051" transform="translate(517.805 265.604)" fill="#6c63ff" opacity="0.1"/>
    <rect id="Rectangle_408" data-name="Rectangle 408" width="26.475" height="34.313" transform="translate(517.805 325.473)" fill="#6c63ff" opacity="0.1"/>
    <rect id="Rectangle_409" data-name="Rectangle 409" width="26.475" height="34.313" transform="translate(517.805 396.596)" fill="#6c63ff" opacity="0.1"/>
    <path id="Path_690" data-name="Path 690" d="M732.887,680.5a4.352,4.352,0,0,1,.785.047h-.785v7.972H706.42V654.17h26.467Z" transform="translate(-188.615 -186.451)" fill="#6c63ff" opacity="0.1"/>
    <path id="Path_691" data-name="Path 691" d="M732.887,744.71v26.506q-13.273-1.123-26.467-3.055V744.71Z" transform="translate(-188.615 -205.883)" fill="#6c63ff" opacity="0.1"/>
    <rect id="Rectangle_410" data-name="Rectangle 410" width="113.463" height="2.521" transform="translate(299 371.731)" fill="#6c63ff" opacity="0.1"/>
    <rect id="Rectangle_411" data-name="Rectangle 411" width="113.463" height="9.66" transform="translate(299 377.606)" fill="#6c63ff" opacity="0.1"/>
    <rect id="Rectangle_412" data-name="Rectangle 412" width="113.463" height="15.535" transform="translate(299 418.932)" fill="#6c63ff" opacity="0.1"/>
    <path id="Path_692" data-name="Path 692" d="M542.775,652.15v15.535H454.028q-5.78-4.414-11.419-9.063c-2.6-2.144-5.176-4.343-7.8-6.472Z" transform="translate(-130.32 -186.017)" fill="#6c63ff" opacity="0.1"/>
    <path id="Path_693" data-name="Path 693" d="M561.257,712.234v15.519h-9.37q-15.794-7.123-30.967-15.542Z" transform="translate(-148.802 -198.908)" fill="#6c63ff" opacity="0.1"/>
    <rect id="Rectangle_413" data-name="Rectangle 413" width="22.336" height="22.336" transform="translate(609.418 276.136)" fill="#6c63ff" opacity="0.1"/>
    <rect id="Rectangle_414" data-name="Rectangle 414" width="22.336" height="22.336" transform="translate(125.802 172.066)" fill="#6c63ff" opacity="0.1"/>
    <rect id="Rectangle_415" data-name="Rectangle 415" width="22.336" height="22.336" transform="translate(125.802 223.948)" fill="#6c63ff" opacity="0.1"/>
    <rect id="Rectangle_416" data-name="Rectangle 416" width="22.336" height="22.336" transform="translate(125.802 275.829)" fill="#6c63ff" opacity="0.1"/>
    <rect id="Rectangle_417" data-name="Rectangle 417" width="22.336" height="22.336" transform="translate(125.802 327.703)" fill="#6c63ff" opacity="0.1"/>
    <rect id="Rectangle_418" data-name="Rectangle 418" width="22.336" height="22.336" transform="translate(125.802 379.585)" fill="#6c63ff" opacity="0.1"/>
    <rect id="Rectangle_419" data-name="Rectangle 419" width="22.336" height="22.336" transform="translate(125.802 431.466)" fill="#6c63ff" opacity="0.1"/>
    <rect id="Rectangle_420" data-name="Rectangle 420" width="22.336" height="22.336" transform="translate(694.686 276.136)" fill="#6c63ff" opacity="0.1"/>
    <rect id="Rectangle_421" data-name="Rectangle 421" width="22.336" height="22.336" transform="translate(609.418 331.229)" fill="#6c63ff" opacity="0.1"/>
    <rect id="Rectangle_422" data-name="Rectangle 422" width="22.336" height="22.336" transform="translate(694.686 331.229)" fill="#6c63ff" opacity="0.1"/>
    <rect id="Rectangle_423" data-name="Rectangle 423" width="22.336" height="22.336" transform="translate(609.418 386.315)" fill="#6c63ff" opacity="0.1"/>
    <rect id="Rectangle_424" data-name="Rectangle 424" width="22.336" height="22.336" transform="translate(694.686 386.315)" fill="#6c63ff" opacity="0.1"/>
    <rect id="Rectangle_425" data-name="Rectangle 425" width="22.336" height="22.336" transform="translate(609.418 441.409)" fill="#6c63ff" opacity="0.1"/>
    <rect id="Rectangle_426" data-name="Rectangle 426" width="22.336" height="22.336" transform="translate(694.686 441.409)" fill="#6c63ff" opacity="0.1"/>
    <rect id="Rectangle_427" data-name="Rectangle 427" width="22.336" height="22.336" transform="translate(609.418 496.503)" fill="#6c63ff" opacity="0.1"/>
    <rect id="Rectangle_428" data-name="Rectangle 428" width="22.336" height="22.336" transform="translate(694.686 496.503)" fill="#6c63ff" opacity="0.1"/>
    <path id="Path_694" data-name="Path 694" d="M775.83,716.734v-14.4h22.328v12.354Z" transform="translate(-166.412 -150.741)" fill="#6c63ff" opacity="0.1"/>
    <path id="Path_695" data-name="Path 695" d="M65.24,357v12.778h76.44V357Zm7.618,11.977H66.622V357.785h6.283Zm7.61,0H74.185V357.785h6.283Zm7.595,0H81.78V357.785h6.283Zm7.61,0H89.4V357.785h6.283Zm7.6,0H96.993V357.785h6.283Zm7.61,0H104.6V357.785h6.283Zm7.61,0h-6.283V357.785H118.5Zm7.6,0h-6.283V357.785H126.1Zm7.6,0h-6.283V357.785H133.7Zm7.6,0H135.02V357.785H141.3Z" transform="translate(-51 -122.67)" fill="#6c63ff" opacity="0.1"/>
    <path id="Path_696" data-name="Path 696" d="M65.24,404.34v12.778h76.44V404.34Zm7.618,11.969H66.622v-11.16h6.283Zm7.61,0H74.185v-11.16h6.283Zm7.595,0H81.78v-11.16h6.283Zm7.61,0H89.4v-11.16h6.283Zm7.6,0H96.993v-11.16h6.283Zm7.61,0H104.6v-11.16h6.283Zm7.61,0h-6.283v-11.16H118.5Zm7.6,0h-6.283v-11.16H126.1Zm7.6,0h-6.283v-11.16H133.7Zm7.6,0H135.02v-11.16H141.3Z" transform="translate(-51 -132.83)" fill="#6c63ff" opacity="0.1"/>
    <path id="Path_697" data-name="Path 697" d="M65.24,451.7v12.8h76.44V451.7Zm7.618,11.969H66.622V452.5h6.283Zm7.61,0H74.185V452.5h6.283Zm7.595,0H81.78V452.5h6.283Zm7.61,0H89.4V452.5h6.283Zm7.6,0H96.993V452.5h6.283Zm7.61,0H104.6V452.5h6.283Zm7.61,0h-6.283V452.5H118.5Zm7.6,0h-6.283V452.5H126.1Zm7.6,0h-6.283V452.5H133.7Zm7.6,0H135.02V452.5H141.3Z" transform="translate(-51 -142.995)" fill="#6c63ff" opacity="0.1"/>
    <path id="Path_698" data-name="Path 698" d="M65.24,499.06v12.762h76.44V499.06Zm7.618,11.969H66.622V499.853h6.283Zm7.61,0H74.185V499.853h6.283Zm7.595,0H81.78V499.853h6.283Zm7.61,0H89.4V499.853h6.283Zm7.6,0H96.993V499.853h6.283Zm7.61,0H104.6V499.853h6.283Zm7.61,0h-6.283V499.853H118.5Zm7.6,0h-6.283V499.853H126.1Zm7.6,0h-6.283V499.853H133.7Zm7.6,0H135.02V499.853H141.3Z" transform="translate(-51 -153.16)" fill="#6c63ff" opacity="0.1"/>
    <path id="Path_699" data-name="Path 699" d="M65.66,546.41c.306,1.2.652,2.4,1.013,3.589v-2.788h6.283v11.168H69.595c.1.259.2.542.306.785H141.77V546.41Zm14.922,11.969H74.3V547.211h6.283Zm7.595,0H81.894V547.211h6.283Zm7.61,0h-6.3V547.211h6.283Zm7.6,0H97.106V547.211h6.283Zm7.61,0h-6.283V547.211H111Zm7.61,0h-6.283V547.211h6.283Zm7.6,0h-6.283V547.211h6.283Zm7.6,0h-6.283V547.211h6.283Zm7.6,0h-6.283V547.211h6.283Z" transform="translate(-51.09 -163.322)" fill="#6c63ff" opacity="0.1"/>
    <path id="Path_700" data-name="Path 700" d="M88.26,593.77c.2.251.385.534.589.785H93v5.364c.448.534.887,1.068,1.343,1.571v-6.966h6.283v11.207H98.085c.251.259.495.534.785.785h47.774V593.77Zm19.956,11.961h-6.283v-11.16h6.283Zm7.61,0h-6.283v-11.16h6.283Zm7.61,0h-6.283v-11.16h6.283Zm7.6,0h-6.283v-11.16h6.283Zm7.6,0h-6.283v-11.16h6.283Zm7.6,0h-6.283v-11.16h6.283Z" transform="translate(-55.941 -173.487)" fill="#6c63ff" opacity="0.1"/>
    <path id="Path_701" data-name="Path 701" d="M141.65,641.12c.715.408,1.445.785,2.183,1.194v-.393h6.283v3.534l1.335.62v-4.155h6.283v6.794a1.969,1.969,0,0,0,.377.141V641.12Z" transform="translate(-67.4 -183.65)" fill="#6c63ff" opacity="0.1"/>
    <path id="Path_702" data-name="Path 702" d="M672.085,360.405ZM623.706,592.2ZM573.23,474.261c.149.5.275,1.005.416,1.5h0C573.521,475.266,573.387,474.763,573.23,474.261Zm98.855-113.879ZM197.72,242.78v3.354H232.8V242.78ZM623.706,592.2ZM573.23,474.261c.149.5.275,1.005.416,1.5h0C573.521,475.266,573.387,474.763,573.23,474.261Zm98.855-113.879ZM623.706,592.176ZM573.23,474.261c.149.5.275,1.005.416,1.5h0C573.521,475.266,573.387,474.763,573.23,474.261Z" transform="translate(-79.434 -98.155)" fill="#6c63ff" opacity="0.1"/>
    <path id="Path_703" data-name="Path 703" d="M463.077,391.052s-3.094-.432-3.094-4.94-2.215-12.927-2.215-12.927h0c0-.039-1.916-14.663-4.563-16.988s-6.047-15.974-6.047-15.974-.581-7.406-1.767-9-2.788-5.5-5.152-11.066-12.22-9.424-12.22-9.424-17.82-10.336-22.87-13.7h0a7.745,7.745,0,0,1-1.28-.966c-.88-1.155-4.712-1.178-4.712-1.178a77.2,77.2,0,0,1-.911-8.066,6.133,6.133,0,0,0-.039-.848,27.174,27.174,0,0,0,11.946-14.781c.094-.3.173-.613.259-.911a2.552,2.552,0,0,0,1.531-1.382c.456-1.013.463-2.2,1.029-3.141.66-1.115,1.916-1.712,2.906-2.552,2.5-2.121,3.141-5.694,3.024-8.945-.079-2.631-.5-5.286-.338-7.9l.047-.66c.047-.393.1-.785.173-1.162.385-1.948,1.225-3.786,1.7-5.718a7.355,7.355,0,0,0-.581-5.772c-1.61-2.443-4.964-2.929-7.909-3.181-3.338-.283-6.322.086-8.458-2.686a30.151,30.151,0,0,0-3.361-4.06c-.44-.408-4.712-3.016-4.712-3.189a19.092,19.092,0,0,0-13.312-1.021c-2.215.644-4.3,1.7-6.55,2.223-4.846,1.147-10.422-.094-14.537,2.678-2.293,1.571-3.668,4.068-4.956,6.5q-1.571,3.008-3.189,6.008c-1.736,3.291-3.5,6.636-4.233,10.281a16.321,16.321,0,0,0-.283,2.4h0v1.28a4.225,4.225,0,0,0,.047.785c.047.243.039.322.063.487s.063.534.11.785.141.691.236,1.037c.039.149.094.291.141.432.079.267.173.526.275.785.055.134.11.275.173.408a7.345,7.345,0,0,0,.4.785c.063.11.11.212.173.314a10.423,10.423,0,0,0,.723,1.052c1.681,2.1,4.155,3.432,5.984,5.4v.88a26.883,26.883,0,0,0,12.236,21.951c0,.3.039.6.055.9a44.942,44.942,0,0,1-.086,7,3.3,3.3,0,0,0-2.607-1.162,3.761,3.761,0,0,0-1.005.086l-.071-.055h0v.071c-1.728.424-3.856,2.223-5.89,7.335,0,0-6.189,6.974-10.9,6.684S331.81,313.5,331.81,313.5s-11.639,7.555-14.137,15.252a107.485,107.485,0,0,1-5.011,12.786l-14.388,29.648h0L295.62,394.7s1.469,10.461,1.178,12.055,6.039,15.974,6.039,15.974,20.914,36.748,29.459,38.632l.613-.432a5.01,5.01,0,0,0,1.155.432l1.759-1.241a19.171,19.171,0,0,1-.133,4.147c-1.178,3.628.44,27.307,2.5,31.949s1.327,65.5,1.327,65.5l-.291,5.372a2.277,2.277,0,0,0,.071.471l-.071,1.272.212.11a15.126,15.126,0,0,1-.212,5.113c-.738,2.356-1.037,9.016-1.037,9.016s-5.882,37.6-3.094,45.159,5.16,15.833,5.16,15.833,2.945,9.424.141,11.034-10.775,4.312-9.134,8.239c1.492,3.628,7.155,13.351,8,14.773l-.071.746L338.03,691.37a15.707,15.707,0,0,0,1.327,4.775c1.264,2.725,3.723,5.553,8.4,5.246.785-.055,1.7-.149,2.576-.267,8.553-1.147,19.085-4.964,19.085-4.964a7.78,7.78,0,0,1-1.492-1.233h0a4.312,4.312,0,0,1-1.312-3.141c.126-2.278-4.139-13.131-5.2-15.8-.165-.385-.251-.6-.251-.6s9.723-10.163,8.105-19.171c0,0-10.76-6.283-7.218-9.731s9.872-13.351,9.872-13.351.291-37.03,0-42.559a45.788,45.788,0,0,1,.542-11.49c.118-.573.259-1.131.408-1.681a102.527,102.527,0,0,0,14.8,1.123c1.806,0,3.644,0,5.5-.11q0,.785.071,1.7c.408,9.173,1.17,25.258,1.791,31.234.88,8.568,5.741,31.658,5.741,31.658s-9.275,5.953,1.618,20.624c0,0,0,5.317-.723,6.087h0a66.591,66.591,0,0,0-1.861,7.665c-.456,2.765-.644,5.56.094,7.013,1.767,3.471,12.37,3.189,12.37,3.189h0l.259-.047a15.2,15.2,0,0,1,11.223,3.385c4.029,3.236,19.32,1.814,27.6.785,3.244-.408,5.411-.785,5.411-.785a3.141,3.141,0,0,0,.11-1.131h0c-.086-2.034-1.681-6.5-12.487-10.477,0,0-10.163-6.833-10.021-12.786h-1.39a11.079,11.079,0,0,1,1.406,0s-3.982-14.529-2.356-15.707-3.244-17.278-3.244-17.278-2.788-27.017-2.937-28.91a16.494,16.494,0,0,1,.73-4.791l-.73-14.812s-.141-4.924,0-6.526a32.6,32.6,0,0,0-.338-4.155c-.071-.55-.141-1.123-.22-1.688,3.809-.966,6.283-1.861,6.283-1.861l-.44-51.56c3.236-6.283,3.833-20.066,3.817-29.844,0-6.283-.283-10.932-.283-10.932l4.422-7.218s1.021-8.639-.6-10.532a1.813,1.813,0,0,1,.2-2.474,8.224,8.224,0,0,1,.966-.66s-.047-.071-.1-.173a7.8,7.8,0,0,1,.982-.7s-1.571-2.435-.165-3.463c1.319.9,2.5,1.571,3.393,2.121-.063.573-.126.9-.126.9l.377-.785c.864.487,1.39.785,1.39.785s6.927-13.8,6.778-15.833,4.712-10.6,4.712-10.6.589-4.5,3.244-6.385,2.058-15.543,2.058-15.543.738-7.115,2.505-10.021S463.077,391.052,463.077,391.052ZM330.538,385l.134,3.291-1.351-2.175Z" transform="translate(-100.446 -92.871)" fill="url(#linear-gradient)"/>
    <path id="Path_704" data-name="Path 704" d="M481.8,508.089l-1.7,7.225s-13.587-6.935-16.037-15.747,4.1-12.158,4.1-12.158l12.66,5.364Z" transform="translate(-136.482 -150.659)" fill="#fff"/>
    <path id="Path_705" data-name="Path 705" d="M481.8,508.089l-1.7,7.225s-13.587-6.935-16.037-15.747,4.1-12.158,4.1-12.158l12.66,5.364Z" transform="translate(-136.482 -150.659)" opacity="0.1"/>
    <path id="Path_706" data-name="Path 706" d="M381.309,819.031s-12.566,4.618-21.205,5.2c-4.587.306-7-2.505-8.239-5.215a15.786,15.786,0,0,1-1.3-4.752l1.123-12.448.6-6.629,18.354-4.767,2.6,7.948.243.6c1.045,2.655,5.231,13.453,5.1,15.707a4.288,4.288,0,0,0,1.288,3.1,7.468,7.468,0,0,0,1.429,1.249Z" transform="translate(-112.24 -215.694)" fill="#fff"/>
    <path id="Path_707" data-name="Path 707" d="M483.584,812.476a3.142,3.142,0,0,1-.11,1.123s-26.875,4.484-32.373,0a14.561,14.561,0,0,0-11.309-3.314s-10.4.283-12.134-3.141c-.723-1.437-.534-4.225-.086-6.974a66.45,66.45,0,0,1,1.822-7.626l.416-.33,2.474-1.987,28.965-.856h.22c-.141,5.922,9.833,12.715,9.833,12.715C481.9,806.012,483.459,810.449,483.584,812.476Z" transform="translate(-128.682 -215.468)" fill="#fff"/>
    <path id="Path_708" data-name="Path 708" d="M483.586,815.427a3.2,3.2,0,0,1-.118,1.123s-26.868,4.484-32.365,0a14.561,14.561,0,0,0-11.3-3.314s-10.406.283-12.134-3.141c-.723-1.445-.542-4.225-.094-6.974,4.005.4,10.328,1.4,12.809,3.778,3.754,3.62,10.116,7.233,14.019,7.516C457.456,814.61,475.732,815.191,483.586,815.427Z" transform="translate(-128.683 -218.42)" opacity="0.1"/>
    <path id="Path_709" data-name="Path 709" d="M381.666,826.519s-12.566,4.618-21.205,5.2c-4.587.306-7-2.505-8.231-5.223,3.2,1.076,7.634,2.207,9.966,1.17,2.764-1.225,12.566-2.018,18.064-2.356a7.736,7.736,0,0,0,1.406,1.209Z" transform="translate(-112.596 -223.182)" opacity="0.1"/>
    <path id="Path_710" data-name="Path 710" d="M407.74,340.122c-10.367-4.029-23.7-17.341-20.373-23.561a13.917,13.917,0,0,0,1.3-4.995,45.61,45.61,0,0,0,.094-7.068,96.8,96.8,0,0,0-1.39-11.5s32.365.73,30.48,5.5a17.823,17.823,0,0,0-.487,6.542c.149,2.717.542,5.788.95,8.388.565,3.566,1.131,6.283,1.131,6.283s-1.979,2.772-3.142,2.922S422.615,345.863,407.74,340.122Z" transform="translate(-120.026 -108.934)" fill="#cf6f80"/>
    <path id="Path_711" data-name="Path 711" d="M373.764,798.973l-.243.267c-9.676-11.7-21.378,2.882-21.378,2.882l-.173-.306.6-6.629,18.354-4.767,2.6,7.948Z" transform="translate(-112.54 -215.694)" opacity="0.1"/>
    <path id="Path_712" data-name="Path 712" d="M462.086,790.186s-7.068-.149-10.838,3.181-21.99.723-21.205,0a2.584,2.584,0,0,0,.408-1.194l2.474-1.987,28.965-.856C462,789.856,462.086,790.186,462.086,790.186Z" transform="translate(-129.292 -215.46)" opacity="0.1"/>
    <path id="Path_713" data-name="Path 713" d="M383.619,669.171a21.848,21.848,0,0,0-1.194,4.029,46.106,46.106,0,0,0-.542,11.435c.291,5.5,0,42.339,0,42.339s-6.212,9.825-9.676,13.288,7.068,9.684,7.068,9.684c1.571,8.953-7.948,19.069-7.948,19.069-9.676-11.7-21.378,2.89-21.378,2.89s-6.362-11-7.948-14.922,6.212-6.644,8.953-8.239-.134-11-.134-11-2.317-8.239-5.066-15.755,3.032-44.931,3.032-44.931.3-6.644,1.013-8.961a14.985,14.985,0,0,0,.212-5.089c-.047-.573-.1-1.052-.141-1.374s-.071-.471-.071-.471l.11-.188,3.927-7.32S385.5,664.561,383.619,669.171Z" transform="translate(-110.356 -186.341)" fill="#6c63ff"/>
    <path id="Path_714" data-name="Path 714" d="M459.767,762.3s-7.068-.149-10.838,3.141-21.99.723-21.205,0,.723-6.071.723-6.071c-10.689-14.592-1.571-20.514-1.571-20.514s-4.775-22.972-5.639-31.493c-.6-5.953-1.351-21.951-1.751-31.085-.173-3.927-.275-6.629-.275-6.629l8.733-1.759,1.123-.228,21.064-4.225s.581,3.927.974,7.139a33.373,33.373,0,0,1,.33,4.139c-.141,1.571,0,6.487,0,6.487l.715,14.741a16.741,16.741,0,0,0-.715,4.767c.141,1.877,2.882,28.753,2.882,28.753s4.767,16.037,3.141,17.192S459.767,762.3,459.767,762.3Z" transform="translate(-126.972 -188.44)" fill="#6c63ff"/>
    <path id="Path_715" data-name="Path 715" d="M417.99,298.5a17.823,17.823,0,0,0-.487,6.542,26.9,26.9,0,0,1-28.6-.534A96.792,96.792,0,0,0,387.51,293S419.875,293.715,417.99,298.5Z" transform="translate(-120.168 -108.934)" opacity="0.1"/>
    <path id="Path_716" data-name="Path 716" d="M427.565,270.555a26.6,26.6,0,0,1-1.319,8.333A26.875,26.875,0,0,1,373.83,271.2v-.644a26.873,26.873,0,1,1,53.747,0Z" transform="translate(-117.232 -98.348)" fill="#cf6f80"/>
    <path id="Path_717" data-name="Path 717" d="M407.74,345.2c-10.367-4.029-23.7-17.341-20.373-23.561a13.917,13.917,0,0,0,1.3-4.995L402.855,328.3l8.78,7.2,6.676-17c.565,3.566,1.131,6.283,1.131,6.283s-1.979,2.772-3.142,2.922S422.615,350.937,407.74,345.2Z" transform="translate(-120.026 -114.007)" opacity="0.1"/>
    <path id="Path_718" data-name="Path 718" d="M394.54,337.769,382.689,536.861l-15.456,1.013L327.21,422.432l6.566-137.055,1.382-28.957,17.8,14.616,8.788,7.2,6.872-17.49,12.778,11.137Z" transform="translate(-70.125 -55.036)" fill="#6c63ff"/>
    <path id="Path_719" data-name="Path 719" d="M385.81,669.188a21.849,21.849,0,0,0-1.194,4.029,113.88,113.88,0,0,1-32.4-10.123l-.212-.11.071-1.264.039-.66,3.927-7.32S387.7,664.578,385.81,669.188Z" transform="translate(-112.547 -186.358)" opacity="0.1"/>
    <path id="Path_720" data-name="Path 720" d="M428.111,676.558a79.539,79.539,0,0,1-8.686.99c-.173-3.927-.275-6.629-.275-6.629l8.733-1.759Z" transform="translate(-126.959 -189.668)" opacity="0.1"/>
    <path id="Path_721" data-name="Path 721" d="M453.738,670.629c-5.584,1.453-14.207,3.087-21.928,2.066l-.11-4.979,21.064-4.225S453.345,667.378,453.738,670.629Z" transform="translate(-129.653 -188.451)" opacity="0.1"/>
    <path id="Path_722" data-name="Path 722" d="M403.831,598.811c-32.2,5.5-61.691-10.265-61.691-10.265l.283-5.341s.73-60.544-1.3-65.186-3.6-28.179-2.458-31.792-4.186-57.788-4.186-57.788l-.864-21.99L302,393.64l14.137-29.467a106.338,106.338,0,0,0,4.916-12.723c2.458-7.65,13.87-15.166,13.87-15.166s11.7-7.508,16.328-7.225,10.689-6.644,10.689-6.644c4.477-11.411,8.529-6.244,8.529-6.244a10.194,10.194,0,0,1-.22,1.689c-1.571,12.527,25.4,52.109,25.784,52.808h0l2.568,62.563,2.6,79.173Z" transform="translate(-101.816 -113.656)" opacity="0.1"/>
    <path id="Path_723" data-name="Path 723" d="M402.725,598.8c-32.2,5.5-61.7-10.265-61.7-10.265l.291-5.341s.73-60.544-1.3-65.186-3.6-28.179-2.45-31.792-4.186-57.788-4.186-57.788l-.872-21.99L300.87,393.58l14.137-29.467a107.991,107.991,0,0,0,4.916-12.723c2.45-7.65,13.87-15.166,13.87-15.166s11.7-7.508,16.32-7.225,10.689-6.644,10.689-6.644c4.484-11.411,9.424-6.244,9.424-6.244,0,.542-.471.785-.22,1.689,3.456,12.15,24.535,52.109,24.92,52.808h0l2.6,62.563,2.6,79.173Z" transform="translate(-101.573 -113.643)" fill="#fff"/>
    <path id="Path_724" data-name="Path 724" d="M411.4,372.888c-3.464-1.445-21.81-22.391-21.81-22.391V345.73c-.668-1.571-4.634-.613-7.854.487l1.382-28.957,1.571,1.3C388.133,330.706,411,372.189,411.4,372.888Z" transform="translate(-118.93 -114.141)" opacity="0.1"/>
    <path id="Path_725" data-name="Path 725" d="M412.511,370.678c-3.471-1.445-21.818-22.391-21.818-22.391V343.52c-.668-1.571-4.634-.613-7.854.487l1.39-28.957,1.571,1.3C389.249,328.5,412.127,369.987,412.511,370.678Z" transform="translate(-119.166 -113.666)" fill="#fff"/>
    <path id="Path_726" data-name="Path 726" d="M352.627,518.259c.432,0,22.391-2.309,22.391-2.309s13.3,26.145,12.425,32.507-2.45,11.993-7.8,11-28.784.785-28.784.785Z" transform="translate(-112.302 -156.785)" opacity="0.1"/>
    <path id="Path_727" data-name="Path 727" d="M351.517,516.049c.432,0,22.391-2.309,22.391-2.309s13.288,26.153,12.425,32.507-2.458,11.993-7.8,11-28.784.785-28.784.785Z" transform="translate(-112.064 -156.311)" fill="#fff"/>
    <path id="Path_728" data-name="Path 728" d="M369.788,501.05s20.153,10.83,20.585,14.137-10.257-1.445-12.566-2.018a28.763,28.763,0,0,0-4.626-.723l-15.4.416Z" transform="translate(-113.787 -153.587)" fill="#cf6f80"/>
    <circle id="Ellipse_81" data-name="Ellipse 81" cx="2.121" cy="2.121" r="2.121" transform="translate(284.73 255.857)" opacity="0.1"/>
    <circle id="Ellipse_82" data-name="Ellipse 82" cx="2.121" cy="2.121" r="2.121" transform="translate(284.73 254.993)" fill="#3f3d56"/>
    <circle id="Ellipse_83" data-name="Ellipse 83" cx="2.121" cy="2.121" r="2.121" transform="translate(288.633 347.652)" opacity="0.1"/>
    <circle id="Ellipse_84" data-name="Ellipse 84" cx="2.121" cy="2.121" r="2.121" transform="translate(288.633 346.78)" fill="#3f3d56"/>
    <circle id="Ellipse_85" data-name="Ellipse 85" cx="2.121" cy="2.121" r="2.121" transform="translate(286.842 301.754)" opacity="0.1"/>
    <circle id="Ellipse_86" data-name="Ellipse 86" cx="2.121" cy="2.121" r="2.121" transform="translate(286.842 300.89)" fill="#3f3d56"/>
    <path id="Path_729" data-name="Path 729" d="M466.467,472.9s1.445,2.168,0,3.181.141,3.463.141,3.463-3.6,2.113-2.018,4.013.581,10.485.581,10.485l-4.335,7.178s.259,4.626.275,10.877c0,9.754-.573,23.467-3.746,29.719l.44,51.293s-15.181,5.545-27.889,3.856l-1.885-82.307s2.749-46.675,3.762-55.628a93.21,93.21,0,0,0,.723-14.019S432.083,431,430.631,424.5c0,0-1.571-28.171-1.728-35.97-.071-3.73.126-14.616.346-24.967.243-11.317.518-21.99.518-21.99L426.9,318.891s2.867-.291,3.731.864a8.271,8.271,0,0,0,1.257.966h0c4.948,3.346,22.43,13.634,22.43,13.634s9.676,3.848,11.993,9.362,3.927,9.424,5.05,11,1.736,8.953,1.736,8.953,3.33,13.587,5.93,15.888,4.5,16.941,4.5,16.941l-22.972,18.064s-2.018,30.048-2.45,31.211S466.467,472.9,466.467,472.9Z" transform="translate(-128.623 -114.484)" fill="#fff"/>
    <path id="Path_730" data-name="Path 730" d="M467.324,472.834s1.437,2.168,0,3.181.134,3.463.134,3.463-3.581,2.136-2.011,4.037.581,10.485.581,10.485l-4.335,7.178s.259,4.626.283,10.877c0,9.754-.573,23.467-3.746,29.719l.432,51.293s-15.2,5.545-27.9,3.856l-1.877-82.307s2.749-46.675,3.762-55.628a92.344,92.344,0,0,0,.715-14.019s-.432-14.011-1.877-20.514c0,0-1.571-28.171-1.736-35.97-.071-3.731.134-14.616.346-24.967.243-11.317.518-21.99.518-21.99L426.83,318.54s3.785,0,4.657,1.17a7.45,7.45,0,0,0,1.257.966h0c4.948,3.346,22.438,13.634,22.438,13.634s9.668,3.848,11.985,9.362,3.927,9.424,5.058,11,1.728,8.953,1.728,8.953,3.33,13.587,5.93,15.888,4.477,16.909,4.477,16.909l-22.972,18.064s-2.018,30.048-2.458,31.211S467.324,472.834,467.324,472.834Z" transform="translate(-128.607 -114.415)" fill="#fff"/>
    <path id="Path_731" data-name="Path 731" d="M440.05,348.666l2.073,6.047-10.917,11c.243-11.309.518-21.99.518-21.99L427.94,320.73s3.786,0,4.657,1.17a7.162,7.162,0,0,0,1.257.958h0l9.283,26.781Z" transform="translate(-128.846 -114.885)" opacity="0.1"/>
    <path id="Path_732" data-name="Path 732" d="M438.94,346.456l2.081,6.047-10.917,11c.243-11.317.518-21.99.518-21.99L426.83,318.52s3.793,0,4.657,1.17a7.852,7.852,0,0,0,1.257.966h0l9.291,26.773Z" transform="translate(-128.608 -114.411)" fill="#fff"/>
    <path id="Path_733" data-name="Path 733" d="M427.565,270.555a26.6,26.6,0,0,1-1.319,8.333,1.123,1.123,0,0,1-.848-.212c-.2-7.068-3.683-13.7-7.964-19.352a20.333,20.333,0,0,0-4.32-4.477,8.451,8.451,0,0,0-5.859-1.657c-2.356.322-4.437,1.924-6.817,2.128-3.141.259-5.953-1.916-9.071-2.026a8.914,8.914,0,0,0-6.668,3.094,18.292,18.292,0,0,0-3.573,6.629,38.781,38.781,0,0,0-1.995,11.435c-.039,2.2-.251,4.956-2.293,5.757a11.733,11.733,0,0,0-2.961-8.961l-.047-.047v-.644a26.873,26.873,0,1,1,53.747,0Z" transform="translate(-117.232 -98.348)" opacity="0.1"/>
    <path id="Path_734" data-name="Path 734" d="M409.583,223.089a18.5,18.5,0,0,0-13.053-1.021c-2.175.644-4.225,1.689-6.432,2.215-4.712,1.139-10.21-.094-14.255,2.662-2.246,1.571-3.6,4.053-4.854,6.464l-3.142,5.985c-1.712,3.275-3.44,6.6-4.155,10.21s-.283,7.642,2,10.54c1.665,2.113,4.123,3.44,5.93,5.427a11.781,11.781,0,0,1,2.953,8.953c2.05-.785,2.246-3.55,2.293-5.749a38.781,38.781,0,0,1,1.995-11.435,18.229,18.229,0,0,1,3.573-6.629,8.93,8.93,0,0,1,6.668-3.094c3.141.11,5.961,2.278,9.071,2.018,2.356-.2,4.445-1.806,6.817-2.121a8.419,8.419,0,0,1,5.859,1.657,20.12,20.12,0,0,1,4.312,4.477c4.288,5.647,7.767,12.267,7.972,19.352.887.652,2.168-.2,2.607-1.2s.456-2.183,1.013-3.142c.644-1.107,1.877-1.7,2.843-2.529,2.45-2.113,3.063-5.67,2.969-8.9s-.723-6.5-.11-9.676c.369-1.948,1.2-3.77,1.657-5.694a7.445,7.445,0,0,0-.565-5.741c-1.571-2.435-4.877-2.914-7.759-3.141-3.275-.283-6.2.079-8.294-2.678a30.082,30.082,0,0,0-3.3-4.037C413.785,225.854,409.583,223.262,409.583,223.089Z" transform="translate(-114.989 -93.551)" fill="#512e4e"/>
    <path id="Path_735" data-name="Path 735" d="M310.567,430.3,302.36,415.13l-2.6,23.412s1.445,10.4,1.155,11.993,5.922,15.888,5.922,15.888,20.522,36.551,28.9,38.436l28.313-20.231-7.508-9.534s-2.6-1.013-3.251,0c0,0-13.94-23.985-15.385-25.721s-1.162-5.2-1.162-5.2-2.168-2.309-1.445-4.477-4.186-9.684-4.186-9.684l4.477-4.186Z" transform="translate(-101.335 -135.146)" opacity="0.1"/>
    <path id="Path_736" data-name="Path 736" d="M302.317,412.93l-2.168,1.728-2.6,23.412s1.445,10.4,1.155,11.993,5.93,15.888,5.93,15.888,20.514,36.551,28.894,38.436l28.321-20.231-7.516-9.534s-2.6-1.013-3.251,0c0,0-13.94-23.985-15.385-25.721s-1.155-5.2-1.155-5.2-2.168-2.309-1.445-4.477-4.194-9.684-4.194-9.684l4.477-4.186Z" transform="translate(-100.86 -134.674)" fill="#fff"/>
    <path id="Path_737" data-name="Path 737" d="M470.412,525.888c1.571,1.908.581,10.477.581,10.477l-4.335,7.178s.259,4.634.275,10.877l-7.288,2.278a4.327,4.327,0,0,1-5.615-4.265l1.257-40.533,17,6.5c-1.445,1.005.141,3.471.141,3.471S468.826,523.979,470.412,525.888Z" transform="translate(-134.445 -155.916)" opacity="0.1"/>
    <path id="Path_738" data-name="Path 738" d="M471.52,524.78c1.571,1.908.581,10.485.581,10.485l-4.335,7.178s.259,4.626.283,10.877l-7.422,2.317a4.241,4.241,0,0,1-5.5-4.178l1.264-40.659,17.011,6.5c-1.453,1.005.134,3.463.134,3.463S469.949,522.879,471.52,524.78Z" transform="translate(-134.681 -155.68)" fill="#fff"/>
    <path id="Path_739" data-name="Path 739" d="M479.453,502.272s-1.155,7.375-4.045,7.807-4.186,11.93-7.068,11.521-.974-10.689-.872-12.684-3.141-10.257-.715-12.134,10.108,0,10.108,0Z" transform="translate(-136.982 -152.492)" fill="#cf6f80"/>
    <path id="Path_740" data-name="Path 740" d="M484.792,428.685l5.451-11s2.168,8.38,2.168,12.857,3.031,4.916,3.031,4.916,3.322,3.927,1.571,6.786-2.458,9.974-2.458,9.974.573,13.579-2.026,15.456-3.141,6.362-3.141,6.362-4.775,8.521-4.626,10.548-6.644,15.747-6.644,15.747,3.322-17.05-16.037-24.417c0,0-.149-5.788,1.3-7.375s3.7-2.309,2.285-10.328-.408-17.6-.408-19.524,4.335-13.925,4.335-13.925Z" transform="translate(-136.172 -135.696)" opacity="0.1"/>
    <path id="Path_741" data-name="Path 741" d="M487.6,415.69l4.759,1.571s2.175,8.38,2.175,12.857,3.032,4.916,3.032,4.916,3.322,3.927,1.571,6.786-2.45,9.974-2.45,9.974.573,13.579-2.026,15.456-3.181,6.362-3.181,6.362-4.767,8.521-4.618,10.548-6.652,15.747-6.652,15.747,3.33-17.05-16.037-24.417c0,0-.141-5.788,1.3-7.375s3.7-2.309,2.285-10.328-.408-17.6-.408-19.524,4.335-13.925,4.335-13.925Z" transform="translate(-136.621 -135.266)" fill="#fff"/>
    <path id="Path_742" data-name="Path 742" d="M360.15,777.859s7.587-4.767,12.566-1.3S360.15,777.859,360.15,777.859Z" transform="translate(-114.296 -212.447)" opacity="0.1"/>
    <path id="Path_743" data-name="Path 743" d="M435.21,759.778a15.358,15.358,0,0,1,12.354,5.207C453.2,771.056,435.21,759.778,435.21,759.778Z" transform="translate(-130.406 -209.108)" opacity="0.1"/>
    <g id="Group_219" data-name="Group 219" transform="translate(248.394 145.033)" opacity="0.1">
      <path id="Path_744" data-name="Path 744" d="M432.687,271.085c-.966.832-2.207,1.429-2.851,2.537a28.741,28.741,0,0,0-1.005,3.141c-.44,1.021-1.72,1.853-2.607,1.21-.2-7.068-3.691-13.7-7.972-19.359a20.12,20.12,0,0,0-4.312-4.477,8.443,8.443,0,0,0-5.867-1.657c-2.356.322-4.43,1.924-6.809,2.12-3.141.267-5.961-1.908-9.079-2.018a8.89,8.89,0,0,0-6.66,3.1,18.189,18.189,0,0,0-3.573,6.621,38.827,38.827,0,0,0-1.995,11.435c-.047,2.191-.251,4.924-2.278,5.741a10.76,10.76,0,0,1,0,1.744c2.042-.785,2.246-3.55,2.293-5.749a38.782,38.782,0,0,1,1.995-11.435,18.228,18.228,0,0,1,3.573-6.629,8.914,8.914,0,0,1,6.66-3.094c3.141.11,5.969,2.278,9.079,2.018,2.356-.2,4.445-1.806,6.809-2.12a8.443,8.443,0,0,1,5.867,1.657,20.122,20.122,0,0,1,4.312,4.477c4.28,5.647,7.767,12.268,7.972,19.352.887.652,2.168-.2,2.607-1.2a30.473,30.473,0,0,1,1.005-3.141c.644-1.107,1.885-1.7,2.851-2.529,2.45-2.113,3.063-5.67,2.969-8.9v-.3C435.523,266.428,434.777,269.279,432.687,271.085Z" transform="translate(-366.453 -245.262)"/>
      <path id="Path_745" data-name="Path 745" d="M371.643,272.231c-1.806-1.987-4.272-3.314-5.93-5.419a11.5,11.5,0,0,1-2.286-6.432,12.1,12.1,0,0,0,2.286,8.16c1.657,2.113,4.123,3.44,5.93,5.427a11.781,11.781,0,0,1,2.961,7.006,11.78,11.78,0,0,0-2.961-8.741Z" transform="translate(-363.385 -246.966)"/>
      <path id="Path_746" data-name="Path 746" d="M452.943,244.855c-.463,1.924-1.288,3.754-1.665,5.694a18.137,18.137,0,0,0-.243,3.927,15.251,15.251,0,0,1,.243-2.23c.377-1.948,1.2-3.77,1.665-5.694a9.661,9.661,0,0,0,.259-3.251,10.912,10.912,0,0,1-.259,1.555Z" transform="translate(-382.192 -243.3)"/>
    </g>
    <ellipse id="Ellipse_87" data-name="Ellipse 87" cx="76.527" cy="12.291" rx="76.527" ry="12.291" transform="translate(27.819 572.763)" fill="#6c63ff" opacity="0.1"/>
    <rect id="Rectangle_429" data-name="Rectangle 429" width="4.924" height="110.871" transform="translate(101.887 349.599)" fill="#535461"/>
    <path id="Path_747" data-name="Path 747" d="M204.253,642.454l-.306,4.995-.44,7.068-.181,2.937-.432,7.068-.188,2.937-.44,7.068L197.3,754.691a13.587,13.587,0,0,1-13.556,12.739H157.939a13.579,13.579,0,0,1-13.548-12.739l-4.94-80.218-.44-7.068-.181-2.937-.44-7.068-.181-2.937-.44-7.068-.314-4.995a7.068,7.068,0,0,1,7.068-7.469H197.31a7.021,7.021,0,0,1,6.943,7.524Z" transform="translate(-66.498 -182.321)" fill="#3f3d56"/>
    <path id="Path_748" data-name="Path 748" d="M156.787,592.24l-.44,7.045H91.02l-.44-7.045Z" transform="translate(-19.338 -127.112)" fill="#9d9cb5"/>
    <path id="Path_749" data-name="Path 749" d="M156.336,604.95,155.9,612H91.81l-.44-7.053Z" transform="translate(-19.508 -129.84)" fill="#9d9cb5"/>
    <path id="Path_750" data-name="Path 750" d="M155.885,617.68l-.432,7.045H92.6l-.44-7.045Z" transform="translate(-19.677 -132.573)" fill="#9d9cb5"/>
    <path id="Path_751" data-name="Path 751" d="M110.972,550.688c28.674,20.75,40.643,53.2,40.643,53.2s-34.556-1.186-63.238-21.935S47.75,528.76,47.75,528.76,82.291,529.938,110.972,550.688Z" transform="translate(-47.246 -159.534)" fill="#6c63ff"/>
    <path id="Path_752" data-name="Path 752" d="M47.72,528.76S83.6,548.669,95.1,565.154s56.508,38.734,56.508,38.734" transform="translate(-47.24 -159.534)" fill="none" stroke="#535461" stroke-miterlimit="10" stroke-width="2"/>
    <path id="Path_753" data-name="Path 753" d="M142.415,500.2c15.605,11.286,22.132,28.949,22.132,28.949s-18.81-.644-34.423-11.93S108,488.26,108,488.26,126.8,488.9,142.415,500.2Z" transform="translate(-60.178 -150.842)" fill="#6c63ff"/>
    <path id="Path_754" data-name="Path 754" d="M108,488.26s19.524,10.838,25.784,19.807,30.763,21.079,30.763,21.079" transform="translate(-60.178 -150.842)" fill="none" stroke="#535461" stroke-miterlimit="10" stroke-width="2"/>
    <path id="Path_755" data-name="Path 755" d="M202.913,532.1c-17.93,19.705-21.723,45.457-21.723,45.457s25.281-6.2,43.2-25.917,21.723-45.457,21.723-45.457S220.843,512.392,202.913,532.1Z" transform="translate(-75.886 -154.688)" fill="#6c63ff"/>
    <path id="Path_756" data-name="Path 756" d="M246.125,506.19s-23.357,20.2-29.294,34.117-35.64,37.25-35.64,37.25" transform="translate(-75.886 -154.69)" fill="none" stroke="#535461" stroke-miterlimit="10" stroke-width="2"/>
    <path id="Path_757" data-name="Path 757" d="M998.739,473.118s-12.966-64.51-8-72.537c0,0,.181-7.461-.118-16.972v-1.092a24.162,24.162,0,0,0,2.725,1.571A22.053,22.053,0,0,0,1008.187,386l-3.927-4.374a7.25,7.25,0,0,1-2.128-3.558,7.454,7.454,0,0,1,.848-3.848c3.731-9.424,3.927-21.276-3.259-28.47-6.071-6.047-7.547-13.854-14.137-19.375-4.814-4.045-7.461-9.974-9.958-15.707a88.339,88.339,0,0,1-5.451-14.867c-.942-4.013-1.319-8.168-2.615-12.087s-3.723-7.728-7.516-9.479a28.371,28.371,0,0,1-4.084-1.8c-1.618-1.092-2.592-2.867-3.762-4.422-5.945-7.854-25.854-3.228-35.279-.039a19.846,19.846,0,0,0-6.974,3.864l.086-.141c.071-.118.157-.236.236-.353a12.393,12.393,0,0,0-2.639,2.945c-1.374,2.175-1.948,4.712-3.094,7.068-1.382,2.788-9.071,10.571-5.765,13.7a2.787,2.787,0,0,0,.785.5,6.793,6.793,0,0,0,3.927.393l-.141.338a22.955,22.955,0,0,0-1.7,8.71,23.573,23.573,0,0,0,23.781,23.365,24.007,24.007,0,0,0,7.28-1.123c.055.3.1.6.157.9a2.755,2.755,0,0,0,.055.353h0l-.416.581a.791.791,0,0,0-.071-.1l-12.33,17.231c-1.885,1.327-12.739,9.181-13.351,15.071-.644,6.448-1.288,14-1.288,14l-.086,1.618a4.854,4.854,0,0,1-3.927,1.06c-3.848-.628-3.848,14.137-3.848,14.137s-2.56,2.356-4.32.314-6.409,4.877-6.409,4.877l-29.137,1.257h0l-.668.039-1.571-4.861a2.05,2.05,0,0,0-2.568-1.312,2.364,2.364,0,0,0-.353.149l-.11.063-.2.141-.1.094a1.573,1.573,0,0,0-.157.165l-.094.11-.047.047h0a1.979,1.979,0,0,0-.283,1.759l1.351,4.17c-5.623,1.131-11.372,4.32-6.684,13.1l-23.765-4.39,7.689,6.456,39.693,8.191c-.526.942-.181,2.309,1.461,4.233,7.068,8.3,19.948,10.555,25.132,11.137a44.617,44.617,0,0,0,5.1,8.639l-.448,8.27s-13.124,63.034-15.527,66.23a37.358,37.358,0,0,0,3.322-4.375c-3.809,12.951-9.134,30.677-10.532,33.331-2.246,4.241-4.327,21.4-1.767,22.5.785.338,3.032.173,6.236-.071v1.422l-.141,53.869s.644,33.041-1.123,36.19-2.238,9.754-2.238,9.754-7.068,13.029-12.668,18.268a.845.845,0,0,1-.126.11l-.173-1.225s-6.731,8.5-21.621,8.019c0,0-8.961,5.827,4.327,6.142s30.26-.471,30.26-.471,11.851-18.064,21.778-15.707v13.689h3.039V688.506a12.463,12.463,0,0,0,5.411-8.191A9.959,9.959,0,0,0,906,671.1a5.89,5.89,0,0,1-1.94-4.3l-.11.094a8.317,8.317,0,0,0-.1-.848c-.872-7.068-1.963-21.653,1.893-32.444,5.286-14.8,6.888-35.4,3.039-47.672a109.628,109.628,0,0,1-3.055-11.945c-.094-.511-.181-1-.259-1.453a61.92,61.92,0,0,1,7.8,1.571c8.914,2.458,28.415,2.914,45.065,2.78.039.456.086.935.141,1.414a51.448,51.448,0,0,0,1.854,9.833c2.089,6.283,3.047,33.983,3.047,33.983s2.694,22.776,1.225,32.043c-.785,5.152-1.571,10.328-2.018,15.527v.1s-4.414,12.566-7.642,19.391c-.079.173-.165.346-.243.51a10.207,10.207,0,0,0-2.521.558s-4.327,8.639-8.639,10.068-2.882,6.134,6.88,4.406,24.5-3.141,24.5-3.141l.636-8.812,3-3.754-.785,8.788,3.2-.628-.424-10.689,4.909-6.142s5.93-5.278-2.882-15.66v.228c-.094-.149-.181-.306-.283-.456V664.4c-1.461-2.262-2.623-6.479-.495-13.964,3.848-13.524,6.087-25.8,6.087-25.8s8.592-32.884-1.736-48.442h.456a26.17,26.17,0,0,1-2.223-6.911q-.078-.424-.141-.872c7.642-.44,15.142-1.822,21.26-4.807C1005.47,563.577,1001.786,485.542,998.739,473.118Zm-97.017-54.426v.157l-1.571.079Zm-5.388.746a1.736,1.736,0,0,0-.707.338A6.974,6.974,0,0,0,894.394,423l-2.45-.55s-1.72-.369-4.194-.785l-1.17-1.178C889.8,420.223,893.146,419.83,896.334,419.438Z" transform="translate(-213.523 -102.643)" fill="url(#linear-gradient-2)"/>
    <path id="Path_758" data-name="Path 758" d="M972.255,743.1l-.935,11.129,3.134-.628-.471-12.071Z" transform="translate(-208.369 -159.154)" fill="#1d2366"/>
    <path id="Path_759" data-name="Path 759" d="M917.043,716.673c-3.778,10.76-2.71,25.281-1.861,32.334.314,2.607.6,4.194.6,4.194s-5.647,12.864-6.118,13.351S893.05,776.9,893.05,776.9l-11.286,6.589s-11.451-5.019-5.961-6.746a8.334,8.334,0,0,0,2.961-2.018c5.5-5.223,12.4-18.2,12.4-18.2s.471-6.589,2.2-9.723,1.1-36.064,1.1-36.064l.134-53.68v-7l21.48.157a48.61,48.61,0,0,0,.927,7.068A108.035,108.035,0,0,0,920,669.182C923.781,681.426,922.211,701.932,917.043,716.673Z" transform="translate(-224.65 -185.566)" fill="#ffb0b1"/>
    <path id="Path_760" data-name="Path 760" d="M915.786,780.248s-5.647,12.864-6.118,13.351-16.618,10.343-16.618,10.343l-11.286,6.589s-11.451-5.019-5.961-6.746a8.334,8.334,0,0,0,2.961-2.018l.487,3.432,3.762-.157,32.2-28.972C915.5,778.662,915.786,780.248,915.786,780.248Z" transform="translate(-224.65 -212.614)" opacity="0.1"/>
    <path id="Path_761" data-name="Path 761" d="M909.942,777l-32.381,29.169-3.762.157-.785-5.5s-6.581,8.466-21.205,8c0,0-8.781,5.8,4.233,6.118s29.632-.471,29.632-.471S897.281,796.407,907,798.763V812.4h2.984V798.637a12.4,12.4,0,0,0,5.293-8.168,10.006,10.006,0,0,0-3.464-9.173,5.914,5.914,0,0,1-1.869-4.3Z" transform="translate(-219.198 -212.813)" fill="#1d2366"/>
    <path id="Path_762" data-name="Path 762" d="M1015.58,733.289c-2.089,7.461-.95,11.663.479,13.917v.047a25.723,25.723,0,0,1,3.754,9.165l.126.707-14.734,21.48-8,3.141s-12.857-4.39-10.508-5.647c.589-.306,1.508-1.94,2.56-4.194,3.141-6.793,7.477-19.328,7.477-19.328v-.1c.456-5.176,1.178-10.335,1.979-15.472,1.437-9.244-1.2-31.933-1.2-31.933s-.943-27.59-2.984-33.865a51.786,51.786,0,0,1-1.83-9.77c-.424-3.927-.518-7.163-.518-7.163s8.466-11.781,23.985.943a17.067,17.067,0,0,1,3.244,3.518c10.72,15.252,2.089,48.85,2.089,48.85S1019.342,719.8,1015.58,733.289Z" transform="translate(-248.71 -185.407)" fill="#ffb0b1"/>
    <path id="Path_763" data-name="Path 763" d="M1019.969,783.828l-14.734,21.48-8,3.141s-12.857-4.39-10.508-5.647c.589-.306,1.508-1.94,2.56-4.194,5.443-.047,8.262,5.136,8.262,5.136l6.9-1.1s9.095-17.875,11.137-18.967.314-8.16.314-8.16v-1.8c.055.063.1.133.165.2v.047a25.718,25.718,0,0,1,3.754,9.165Z" transform="translate(-248.716 -212.109)" opacity="0.1"/>
    <path id="Path_764" data-name="Path 764" d="M995.129,804.333s-3.927-7.21-11.451-4.547c0,0-4.233,8.639-8.466,10.037s-2.82,6.11,6.746,4.39,23.985-3.141,23.985-3.141l.628-8.788,9.723-12.385s5.8-5.254-2.827-15.6v1.8s1.728,7.068-.314,8.16-11.105,18.975-11.105,18.975Z" transform="translate(-245.82 -212.234)" fill="#1d2366"/>
    <path id="Path_765" data-name="Path 765" d="M921.644,650.187a48.6,48.6,0,0,0,.927,7.068c-8.843-1.3-17.051-.652-22.43-.228v-7Z" transform="translate(-230.193 -185.562)" opacity="0.1"/>
    <path id="Path_766" data-name="Path 766" d="M1021.869,660.687s-12.566.613-27.551.738c-.424-3.927-.518-7.162-.518-7.162s8.466-11.781,23.985.942a17.075,17.075,0,0,1,3.244,3.518,19.161,19.161,0,0,0,.84,1.963Z" transform="translate(-250.295 -185.404)" opacity="0.1"/>
    <path id="Path_767" data-name="Path 767" d="M999.786,621.678s-55.039,2.662-71.814-2.042-33.4-.628-35.907-1.72-.471-18.189,1.728-22.422,14.262-47.044,14.262-47.044l11.608-60.521,12.228-3.369.864-.243,21.307-5.875,15.613-4.312s31.046,121.207,28.383,130.144a22.886,22.886,0,0,0-.455,10.516A26.249,26.249,0,0,0,999.786,621.678Z" transform="translate(-228.212 -147.809)" fill="#1d2366"/>
    <path id="Path_768" data-name="Path 768" d="M874.419,439s-11,11.781-2.67,18.346,13.8.628,13.8.628Z" transform="translate(-223.431 -140.269)" fill="#c7daf5"/>
    <path id="Path_769" data-name="Path 769" d="M874.419,439s-11,11.781-2.67,18.346,13.8.628,13.8.628Z" transform="translate(-223.431 -140.269)" opacity="0.1"/>
    <path id="Path_770" data-name="Path 770" d="M982.682,334.512s-1.288,1.225-3.228,3.032c-2.765,2.584-6.856,6.362-10.485,9.527-5.026,4.375-9.173,7.587-7.689,4.846s1.2-7.516.463-11.985c-.055-.3-.1-.6-.157-.887a82.305,82.305,0,0,0-2.427-9.707s8.121-10.493,12.613-14.632c1.673-1.571,2.843-2.215,2.914-1.123.078,1.469,1.178,4.712,2.545,8.152.039.11.079.212.126.322.911,2.356,1.94,4.775,2.843,6.864C981.582,332.124,982.682,334.512,982.682,334.512Z" transform="translate(-242.86 -113.234)" fill="#ffb0b1"/>
    <path id="Path_771" data-name="Path 771" d="M977.357,322.058a23.31,23.31,0,0,1-15.613,17.875,81.727,81.727,0,0,0-2.584-10.595s15.291-19.752,15.527-15.755C974.742,315.1,975.936,318.461,977.357,322.058Z" transform="translate(-242.86 -113.237)" opacity="0.1"/>
    <path id="Path_772" data-name="Path 772" d="M952.474,353.238l1.979-2.788s1.312,8,6.134,4.469,5.058,26.538,5.058,26.538l-5.176,77.383-37.4-2.238,1.06-37.392,4.233-18.849,10.469-27.4,6.228-9.055Z" transform="translate(-235.114 -121.264)" opacity="0.1"/>
    <path id="Path_773" data-name="Path 773" d="M965.651,382.056l-4.712,69.969-.495,7.414-20.852-1.249-.785-.047L923.1,457.2l1.06-37.4,4.233-18.849,10.469-27.4,6.228-9.055,7.414-10.7,1.979-2.78s1.312,8,6.134,4.469l.1-.071h0C965.432,352.424,965.651,382.056,965.651,382.056Z" transform="translate(-235.121 -121.384)" fill="#1d2366"/>
    <path id="Path_774" data-name="Path 774" d="M917.265,406.26s-1.877,3.927-5.647,3.291-3.762,14.137-3.762,14.137-2.505,2.356-4.233.314-6.283,4.861-6.283,4.861L868.8,430.12s12.7,5.8,10.21,23.365c0,0,43.117-2.67,44.531-6.746S917.265,406.26,917.265,406.26Z" transform="translate(-223.467 -133.242)" fill="#fff"/>
    <path id="Path_775" data-name="Path 775" d="M917.265,406.26s-1.877,3.927-5.647,3.291-3.762,14.137-3.762,14.137-2.505,2.356-4.233.314-6.283,4.861-6.283,4.861L868.8,430.12s12.7,5.8,10.21,23.365c0,0,43.117-2.67,44.531-6.746S917.265,406.26,917.265,406.26Z" transform="translate(-223.467 -133.242)" opacity="0.03"/>
    <path id="Path_776" data-name="Path 776" d="M777.66,389.76l7.524,6.424L847.118,409.2l-7.681-7.838Z" transform="translate(-166.804 -83.655)" fill="#fff"/>
    <path id="Path_777" data-name="Path 777" d="M948.407,355.143c-1.029,1.571-3.974,9.613-6.432,16.634-2.05,5.851-3.762,11-3.762,11s-4,26.027-6.039,30.732-.935,23.051-.935,23.051l-7.61,45.308s-3.448,23.365-8.773,37.321c-5.254,13.736-11.105,20.176-11.286,20.38,2.356-3.189,15.2-65.971,15.2-65.971l4.241-79.181s.62-7.524,1.249-13.956,13.351-15.213,13.351-15.213L949.876,347.8C951.109,349.449,950.284,352.324,948.407,355.143Z" transform="translate(-230.929 -120.695)" fill="#fff"/>
    <path id="Path_778" data-name="Path 778" d="M912.153,481.973s-18.064-.785-26.813-11.294,20.223-4.194,20.223-4.194l7.532,1.728Z" transform="translate(-226.663 -145.765)" fill="#ffb0b1"/>
    <path id="Path_779" data-name="Path 779" d="M1009.258,579.021a22.887,22.887,0,0,0-.455,10.516c-19.7,1.4-40.784-3.927-40.784-3.927-3.927,3.613-14.27,8.938-14.27,8.938l-5.639-69.9c-3.6-9.424-5.018-58.8-5.018-58.8s.322-2.584.785-6.456a.743.743,0,0,1,.039-.291c1.406-10.815,4.194-31.116,5.56-33.857,1.885-3.77-5.8-13.8-5.8-13.8l3.495-29.8.424-3.6c7.367-3.291,13.014-13.8,13.014-13.8l4.335-7.595h0c4.712-3.024,4.956,26.608,4.956,26.608l-4.712,69.969,15.613-4.312S1011.92,570.084,1009.258,579.021Z" transform="translate(-239.411 -122.548)" opacity="0.1"/>
    <path id="Path_780" data-name="Path 780" d="M1029.739,578.736c-21.48,10.665-60.521.785-60.521.785-3.927,3.613-14.27,8.938-14.27,8.938l-5.647-69.9c-3.6-9.424-5.011-58.8-5.011-58.8s4.539-36.842,6.424-40.6c.55-1.1.283-2.733-.369-4.492a56.845,56.845,0,0,1-3.44-26.3l1.508-12.809.416-3.589c7.375-3.3,13.021-13.807,13.021-13.807l3.927-6.88L973,338.6l3.424-6,.581.526,4.437,4.021,4.712,3.927c6.149,5.183,16.776,14.309,22.258,19.893,4.822,4.916,6.346,24.04,6.786,38.436.291,9.479.118,16.909.118,16.909-4.861,8,7.854,72.254,7.854,72.254C1026.134,500.984,1029.739,578.736,1029.739,578.736Z" transform="translate(-239.669 -117.433)" fill="#fff"/>
    <path id="Path_781" data-name="Path 781" d="M982.528,364.637S967.786,392.7,969.5,403.364s6.581,22.737,4.233,25.556a8.678,8.678,0,0,1-6.9,3.448c-2.356.157-8.639,4.547-8.639,5.019s-5.8.471-11,2.67a68.46,68.46,0,0,1-12.857,3.448s-14.922-.471-16.312.942-2.82,9.872.157,16.618,6.283,11.781,8.78,12.7,18.346-4.39,31.2-5.647,26.813-11.443,26.813-11.443,15.37-5.5,18.064-14.741-3.291-60.05-3.291-60.05S995.227,358.205,982.528,364.637Z" transform="translate(-233.69 -124.071)" opacity="0.03"/>
    <path id="Path_782" data-name="Path 782" d="M980.134,361.638s-14.741,28.069-13.014,38.727,6.581,22.737,4.225,25.564a8.639,8.639,0,0,1-6.9,3.448c-2.356.157-8.639,4.547-8.639,5.019s-5.8.471-11,2.662a69.131,69.131,0,0,1-12.857,3.448s-14.922-.471-16.3.942-2.827,9.88.157,16.618,6.283,11.781,8.78,12.7,18.346-4.39,31.2-5.639,26.813-11.451,26.813-11.451,15.362-5.5,18.024-14.734-3.291-60.057-3.291-60.057S992.833,355.214,980.134,361.638Z" transform="translate(-233.181 -123.428)" opacity="0.03"/>
    <path id="Path_783" data-name="Path 783" d="M981.942,362.84s-14.741,28.069-13.014,38.727,6.581,22.737,4.233,25.556a8.639,8.639,0,0,1-6.9,3.456c-2.356.157-8.639,4.547-8.639,5.011s-5.8.471-11,2.67a68.616,68.616,0,0,1-12.857,3.448s-14.922-.471-16.312.943-2.82,9.88.157,16.618,6.283,11.781,8.78,12.7,18.346-4.39,31.2-5.647,26.813-11.443,26.813-11.443,15.37-5.5,18.064-14.741-3.251-60.05-3.251-60.05S994.633,356.447,981.942,362.84Z" transform="translate(-233.567 -123.688)" fill="#fff"/>
    <path id="Path_784" data-name="Path 784" d="M997.254,458.808s-11.781-2.356-7.681,1.571,4.076,7.367,9.095,7.21S997.254,458.808,997.254,458.808Z" transform="translate(-249.202 -144.37)" opacity="0.1"/>
    <path id="Path_785" data-name="Path 785" d="M1024.56,566.58s-5.325,3.6,4.861,11.914S1024.56,566.58,1024.56,566.58Z" transform="translate(-256.598 -167.652)" opacity="0.1"/>
    <path id="Path_786" data-name="Path 786" d="M1011.938,604.31c0,.471-1.885,17.278,5.168,21.48S1011.938,604.31,1011.938,604.31Z" transform="translate(-254.139 -175.749)" opacity="0.1"/>
    <path id="Path_787" data-name="Path 787" d="M865.762,436.59c-5.686.2-17.969,1.932-11.6,13.815,5.631,10.516,15.095,3.487,20.42-1.846a20.066,20.066,0,0,0-8.82-11.969Z" transform="translate(-219.942 -139.752)" fill="#ffb0b1"/>
    <path id="Path_788" data-name="Path 788" d="M881.39,451Z" transform="translate(-226.169 -142.845)" fill="#ffb0b1"/>
    <path id="Path_789" data-name="Path 789" d="M880.74,451.643l.236-.243Z" transform="translate(-226.029 -142.931)" fill="#ffb0b1"/>
    <path id="Path_790" data-name="Path 790" d="M987.285,341.68c-6.032,4.123-11.089,7.6-12.079,8.325-2.7,2-7.854,13.76-11.176,19.76-2.647,4.83-11.247,6.071-14.49,6.377l.416-3.589c7.375-3.3,13.021-13.807,13.021-13.807l14.576-25.556,5.019,4.563Z" transform="translate(-240.796 -117.56)" opacity="0.1"/>
    <path id="Path_791" data-name="Path 791" d="M987.285,341.08c-6.032,4.123-11.089,7.6-12.079,8.333-2.7,1.995-7.854,13.752-11.176,19.752-2.647,4.83-11.247,6.071-14.49,6.377l.416-3.589c7.375-3.3,13.021-13.807,13.021-13.807l14.576-25.556,5.019,4.547S984.458,338.692,987.285,341.08Z" transform="translate(-240.796 -117.431)" fill="#dce7ff"/>
    <path id="Path_792" data-name="Path 792" d="M970.087,311.555a23.294,23.294,0,1,1-19.8-23.027,23.255,23.255,0,0,1,19.8,23.027Z" transform="translate(-235.206 -107.917)" fill="#ffb0b1"/>
    <path id="Path_793" data-name="Path 793" d="M1011.2,389.9a20.7,20.7,0,0,1-7.516-8.074c-1.312-2.592-2.183-5.584-4.422-7.422-2.018-1.649-4.712-2.05-7.225-2.788-8.262-2.443-15.189-9.982-15.448-18.59-.126-4.053,1.139-8.1.565-12.11a13.413,13.413,0,0,0-2.623-6.244,21.5,21.5,0,0,0-2.27-2.442c-1.1-1.037-2.254-2.042-3.259-3.142a12.2,12.2,0,0,1-1.649-2.238,10.769,10.769,0,0,1-.9-2.081c-1.571-4.806-.141-10.508-1.869-15.37l-.094-.267c-.652-1.728-1.979-3.456-3.825-3.589s-3.424,1.4-5.183,2.081c-3.683,1.429-7.657-1.005-10.728-3.487s-6.534-5.317-10.438-4.767c-2.584.369-4.626,2.128-7.005,3.039a9.822,9.822,0,0,1-1.657.479,23.286,23.286,0,0,1,44.9,8.678,23.047,23.047,0,0,1-.51,4.861c.039.11.078.212.126.322.911,2.356,1.94,4.775,2.843,6.864l4.437,4.021,4.712,3.927c6.149,5.183,16.776,14.309,22.257,19.893C1009.237,356.384,1010.745,375.5,1011.2,389.9Z" transform="translate(-235.668 -107.917)" opacity="0.1"/>
    <path id="Path_794" data-name="Path 794" d="M925.648,283.172c1.123-2.285,1.681-4.846,3.024-7.013,1.971-3.142,5.411-5.152,8.945-6.369,9.228-3.181,28.729-7.8,34.556,0,1.147,1.571,2.1,3.314,3.683,4.4a27.349,27.349,0,0,0,4,1.8c3.715,1.744,6.087,5.545,7.351,9.424s1.641,8.042,2.568,12.04a88.542,88.542,0,0,0,5.341,14.82c2.443,5.7,5.034,11.616,9.747,15.645,6.432,5.5,7.854,13.281,13.823,19.312,7.068,7.163,6.841,18.982,3.2,28.368a7.788,7.788,0,0,0-.833,3.833,7.516,7.516,0,0,0,2.081,3.55l3.864,4.359a21.728,21.728,0,0,1-23.742-10.948c-1.312-2.592-2.183-5.576-4.43-7.422-2.01-1.649-4.712-2.042-7.218-2.78-8.262-2.45-15.189-10-15.448-18.605-.126-4.045,1.139-8.089.565-12.095a13.352,13.352,0,0,0-2.631-6.283c-2.16-2.819-5.419-4.712-7.178-7.854-2.977-5.254-.715-12.079-2.859-17.718-.66-1.728-1.979-3.456-3.825-3.589s-3.424,1.4-5.191,2.081c-3.676,1.429-7.65-1-10.72-3.487s-6.534-5.317-10.445-4.759c-2.584.361-4.618,2.121-7,3.039-1.759.675-5.325,1.28-6.864-.2C916.758,293.719,924.29,285.967,925.648,283.172Z" transform="translate(-234.284 -103.032)" fill="#591d4b"/>
    <path id="Path_795" data-name="Path 795" d="M1005.388,375.883c-1.319-2.592-2.183-5.576-4.43-7.414-2.011-1.649-4.712-2.05-7.225-2.788-8.254-2.443-15.181-9.99-15.448-18.6-.126-4.045,1.139-8.1.573-12.1a13.431,13.431,0,0,0-2.631-6.244c-2.168-2.819-5.427-4.712-7.178-7.854-2.977-5.246-.715-12.071-2.867-17.718-.652-1.72-1.979-3.448-3.817-3.589s-3.432,1.406-5.191,2.089c-3.676,1.429-7.657-1.005-10.72-3.487s-6.542-5.317-10.445-4.767c-2.584.369-4.626,2.128-7,3.039-1.759.675-5.333,1.288-6.872-.2-3.236-3.141,4.3-10.877,5.647-13.658,1.123-2.293,1.681-4.846,3.032-7.013.071-.118.149-.236.228-.353a12.472,12.472,0,0,0-2.584,2.937c-1.343,2.168-1.9,4.712-3.024,7.013-1.359,2.78-8.89,10.54-5.647,13.658,1.571,1.492,5.1.88,6.864.2,2.356-.919,4.414-2.678,7-3.039,3.927-.558,7.383,2.278,10.445,4.759s7.068,4.916,10.728,3.487c1.759-.683,3.3-2.223,5.183-2.081s3.141,1.861,3.825,3.589c2.144,5.639-.118,12.464,2.859,17.718,1.759,3.087,5.019,5.019,7.178,7.854a13.35,13.35,0,0,1,2.631,6.283c.573,4.005-.691,8.05-.565,12.095.259,8.639,7.186,16.155,15.448,18.605,2.49.738,5.207,1.131,7.218,2.78,2.254,1.846,3.141,4.83,4.43,7.422a21.728,21.728,0,0,0,23.742,10.948l-1.822-2.058A21.962,21.962,0,0,1,1005.388,375.883Z" transform="translate(-234.238 -105.12)" opacity="0.1"/>
    <path id="Path_796" data-name="Path 796" d="M957.1,355.722c-1.029,1.571-3.974,9.613-6.432,16.634-2.3-.9-4.39-6.6-4.39-6.6L958.548,348.3C959.8,350.028,958.979,352.894,957.1,355.722Z" transform="translate(-240.096 -120.803)" opacity="0.1"/>
    <path id="Path_797" data-name="Path 797" d="M957.7,355.124c-1.029,1.571-3.974,9.613-6.432,16.634-2.3-.888-4.39-6.605-4.39-6.605l12.267-17.443C960.4,349.43,959.579,352.3,957.7,355.124Z" transform="translate(-240.225 -120.676)" fill="#dce7ff"/>
    <path id="Path_798" data-name="Path 798" d="M867.955,452.734l-6.8-21.449a2,2,0,0,1,1.3-2.521h0a2.01,2.01,0,0,1,2.513,1.3l6.8,21.425-.675,4.484Z" transform="translate(-221.805 -138.053)" fill="#be8b87"/>
    <path id="Path_799" data-name="Path 799" d="M861.886,429.41h0a2.01,2.01,0,0,1,2.521,1.3l6.8,21.425-.51,3.361.495.518.675-4.484-6.841-21.425a2.011,2.011,0,0,0-2.513-1.3h0a2.011,2.011,0,0,0-1.045.785,2.734,2.734,0,0,1,.416-.181Z" transform="translate(-221.893 -138.061)" fill="#fff" opacity="0.1"/>
    <path id="Path_800" data-name="Path 800" d="M822.6,400.349l3.817-1.209-.558,3.676-.118.809-1.115-1.162Z" transform="translate(-176.45 -85.668)" fill="#efc8c4"/>
    <path id="Path_801" data-name="Path 801" d="M872.42,461.93a.785.785,0,0,1,.243-.2.345.345,0,0,1,.369,0,.973.973,0,0,1,.134.212.675.675,0,0,0,.487.322l-.118.785Z" transform="translate(-224.243 -145.135)" fill="#727a9c"/>
    <path id="Path_802" data-name="Path 802" d="M861.13,441.7s13.642-.079,10.43,5.725-8.231,6.5-8.231,6.5Z" transform="translate(-221.82 -140.849)" fill="#ffb0b1"/>
    <path id="Path_803" data-name="Path 803" d="M704.055,110.05h-.589a67.176,67.176,0,0,0-56.083,30.7,67.176,67.176,0,0,0-56.083-30.7h-.589a66.757,66.757,0,0,0-66.12,66.717c0,21.841,9.566,52.832,28.218,78.333,35.538,48.591,94.575,91.1,94.575,91.1s59.036-42.5,94.567-91.1c18.66-25.5,28.218-56.492,28.218-78.333a66.757,66.757,0,0,0-66.113-66.717Zm-8.427,148.789a13.233,13.233,0,0,1-12.307-8.5H669.311a4.429,4.429,0,0,1-4.17-3.016l-4.3-12.967-13.618,47.586a4.406,4.406,0,0,1-4.225,3.181h-.275a4.351,4.351,0,0,1-4.084-3.644L624.6,197.069l-10.257,49.95a4.375,4.375,0,0,1-4.249,3.322H590.357a4.39,4.39,0,1,1,0-8.773h16.281l14.529-67.157a4.406,4.406,0,0,1,8.639.361l14.333,86.108,12.2-42.575a4.32,4.32,0,0,1,4.108-3.141h.086a4.382,4.382,0,0,1,4.162,3.016l7.783,23.412h10.665a13.163,13.163,0,1,1,12.5,17.278Z" transform="translate(-149.59 -69.668)" fill="#6c63ff"/>
  </g>
</svg>
