<svg xmlns="http://www.w3.org/2000/svg" xmlns:xlink="http://www.w3.org/1999/xlink" width="386" height="914" viewBox="0 0 386 914">
  <defs>
    <linearGradient id="linear-gradient" x1="0.5" y1="1" x2="0.5" gradientUnits="objectBoundingBox">
      <stop offset="0" stop-color="gray" stop-opacity="0.251"/>
      <stop offset="0.54" stop-color="gray" stop-opacity="0.122"/>
      <stop offset="1" stop-color="gray" stop-opacity="0.102"/>
    </linearGradient>
    <linearGradient id="linear-gradient-2" x1="0.5" y1="1" x2="0.5" y2="0" xlink:href="#linear-gradient"/>
  </defs>
  <g id="Group_324" data-name="Group 324" transform="translate(-288 -123)">
    <g id="Group_322" data-name="Group 322">
      <path id="Rectangle_433" data-name="Rectangle 433" d="M6,0H386a0,0,0,0,1,0,0V914a0,0,0,0,1,0,0H6a6,6,0,0,1-6-6V6A6,6,0,0,1,6,0Z" transform="translate(288 123)" fill="#f1f1f1"/>
    </g>
    <g id="Group_323" data-name="Group 323">
      <g id="undraw_doctor_kw5l" transform="translate(337.001 475.985)">
        <path id="Path_945" data-name="Path 945" d="M224.644,108.687c-18.5-.643-36.142-6.617-52.959-13.152S138.2,81.758,120.13,78.3c-11.619-2.23-24.906-2.543-34.266,3.686-9.009,5.993-11.919,16.338-13.484,25.937-1.177,7.223-1.86,14.824,1.358,21.587,2.24,4.693,6.216,8.64,8.966,13.136,9.567,15.645,2.8,34.938-7.566,50.227-4.863,7.175-10.505,14-14.258,21.632s-5.49,16.37-2.206,24.152c3.255,7.707,11.01,13.505,19.413,17.579,17.067,8.268,37.176,10.633,56.786,11.988,43.408,2.968,87.05,1.682,130.572.4,16.107-.478,32.286-.959,48.13-3.455,8.8-1.385,17.885-3.58,24.274-8.879,8.108-6.729,10.12-18.119,4.685-26.557-9.115-14.149-34.316-17.665-40.689-32.85-3.505-8.358.1-17.67,5.193-25.422,10.93-16.628,29.257-31.218,30.221-50.227.664-13.056-8.145-26.129-21.768-32.307-14.276-6.482-34.075-5.663-44.606,5.049C260.04,105.006,240.98,109.253,224.644,108.687Z" transform="translate(-56.94 -71.995)" fill="#6c63ff" opacity="0.1"/>
        <path id="Path_946" data-name="Path 946" d="M208.606,657.864s-14.616-11.05-17.378-25.106a27.782,27.782,0,0,0-8.56-15.336,46.769,46.769,0,0,0-6.848-5.1" transform="translate(-144.228 -465.173)" fill="none" stroke="#535461" stroke-miterlimit="10" stroke-width="2"/>
        <path id="Path_947" data-name="Path 947" d="M149.641,574.636c1.281,1.733,1.86,9.075,1.86,9.075s-6.848-2.7-8.132-4.427a3.9,3.9,0,1,1,6.272-4.648Z" transform="translate(-119.838 -436.344)" fill="#6c63ff"/>
        <path id="Path_948" data-name="Path 948" d="M193.768,590.576c.133,2.15-3.367,8.629-3.367,8.629s-4.287-5.99-4.422-8.14a3.9,3.9,0,1,1,7.787-.489Z" transform="translate(-151.681 -446.523)" fill="#6c63ff"/>
        <path id="Path_949" data-name="Path 949" d="M239.415,647.373c-.967,1.924-7.263,5.751-7.263,5.751s-.672-7.335.3-9.259a3.9,3.9,0,1,1,6.969,3.508Z" transform="translate(-185.423 -486.758)" fill="#6c63ff"/>
        <path id="Path_950" data-name="Path 950" d="M262.43,703.823c-.63,2.06-6.187,6.894-6.187,6.894s-1.905-7.114-1.276-9.176a3.9,3.9,0,0,1,7.462,2.283Z" transform="translate(-202.248 -528.655)" fill="#6c63ff"/>
        <path id="Path_951" data-name="Path 951" d="M169.455,631.286c2.126.287,8.847-2.748,8.847-2.748s-5.671-4.7-7.808-4.985a3.9,3.9,0,1,0-1.039,7.733Z" transform="translate(-137.071 -473.395)" fill="#6c63ff"/>
        <path id="Path_952" data-name="Path 952" d="M194.249,695.128c2.126-.364,7.619-5.267,7.619-5.267s-6.819-2.785-8.943-2.421a3.9,3.9,0,1,0,1.329,7.688Z" transform="translate(-154.41 -520.305)" fill="#6c63ff"/>
        <path id="Path_953" data-name="Path 953" d="M231.814,753.092c2.155,0,8.4-3.9,8.4-3.9s-6.248-3.9-8.4-3.9a3.9,3.9,0,1,0,0,7.8Z" transform="translate(-182.475 -562.806)" fill="#6c63ff"/>
        <path id="Path_954" data-name="Path 954" d="M833.49,317.553S842.5,301.594,856.079,297a27.779,27.779,0,0,0,14.064-10.521A46.592,46.592,0,0,0,874.286,279" transform="translate(-627.121 -220.433)" fill="none" stroke="#535461" stroke-miterlimit="10" stroke-width="2"/>
        <path id="Path_955" data-name="Path 955" d="M994.916,249.486c-1.547,1.5-8.746,3.051-8.746,3.051s1.767-7.149,3.314-8.65a3.9,3.9,0,1,1,5.432,5.6Z" transform="translate(-739.226 -193.843)" fill="#6c63ff"/>
        <path id="Path_956" data-name="Path 956" d="M978.891,295.235c-2.126.42-9-2.19-9-2.19s5.368-5.049,7.481-5.461a3.9,3.9,0,1,1,1.52,7.651Z" transform="translate(-727.273 -226.668)" fill="#6c63ff"/>
        <path id="Path_957" data-name="Path 957" d="M929.592,348.457c-2.036-.7-6.662-6.434-6.662-6.434s7.175-1.642,9.216-.938a3.9,3.9,0,1,1-2.554,7.372Z" transform="translate(-692.792 -265.89)" fill="#6c63ff"/>
        <path id="Path_958" data-name="Path 958" d="M875.643,378.286c-2.126-.351-7.643-5.227-7.643-5.227s6.8-2.833,8.924-2.482a3.905,3.905,0,0,1-1.268,7.707Z" transform="translate(-652.46 -287.652)" fill="#6c63ff"/>
        <path id="Path_959" data-name="Path 959" d="M947.3,276.328c0,2.155,3.907,8.408,3.907,8.408s3.9-6.245,3.9-8.4a3.9,3.9,0,1,0-7.8,0Z" transform="translate(-710.686 -215.54)" fill="#6c63ff"/>
        <path id="Path_960" data-name="Path 960" d="M887.5,309.986c.643,2.057,6.235,6.854,6.235,6.854s1.86-7.128,1.212-9.184a3.9,3.9,0,0,0-7.441,2.331Z" transform="translate(-666.678 -239.562)" fill="#6c63ff"/>
        <path id="Path_961" data-name="Path 961" d="M834.866,354.32c.287,2.126,4.986,7.805,4.986,7.805s3.032-6.71,2.745-8.844a3.9,3.9,0,1,0-7.731,1.039Z" transform="translate(-628.096 -272.424)" fill="#6c63ff"/>
        <path id="Path_962" data-name="Path 962" d="M994.916,249.486c-1.547,1.5-8.746,3.051-8.746,3.051s1.767-7.149,3.314-8.65a3.9,3.9,0,1,1,5.432,5.6Z" transform="translate(-739.226 -193.843)" opacity="0.25"/>
        <path id="Path_963" data-name="Path 963" d="M978.891,295.235c-2.126.42-9-2.19-9-2.19s5.368-5.049,7.481-5.461a3.9,3.9,0,1,1,1.52,7.651Z" transform="translate(-727.273 -226.668)" opacity="0.25"/>
        <path id="Path_964" data-name="Path 964" d="M929.592,348.457c-2.036-.7-6.662-6.434-6.662-6.434s7.175-1.642,9.216-.938a3.9,3.9,0,1,1-2.554,7.372Z" transform="translate(-692.792 -265.89)" opacity="0.25"/>
        <path id="Path_965" data-name="Path 965" d="M875.643,378.286c-2.126-.351-7.643-5.227-7.643-5.227s6.8-2.833,8.924-2.482a3.905,3.905,0,0,1-1.268,7.707Z" transform="translate(-652.46 -287.652)" opacity="0.25"/>
        <path id="Path_966" data-name="Path 966" d="M947.3,276.328c0,2.155,3.907,8.408,3.907,8.408s3.9-6.245,3.9-8.4a3.9,3.9,0,1,0-7.8,0Z" transform="translate(-710.686 -215.54)" opacity="0.25"/>
        <path id="Path_967" data-name="Path 967" d="M887.5,309.986c.643,2.057,6.235,6.854,6.235,6.854s1.86-7.128,1.212-9.184a3.9,3.9,0,0,0-7.441,2.331Z" transform="translate(-666.678 -239.562)" opacity="0.25"/>
        <path id="Path_968" data-name="Path 968" d="M834.866,354.32c.287,2.126,4.986,7.805,4.986,7.805s3.032-6.71,2.745-8.844a3.9,3.9,0,1,0-7.731,1.039Z" transform="translate(-628.096 -272.424)" opacity="0.25"/>
        <path id="Path_969" data-name="Path 969" d="M835.44,279.863s1.77-18.241,12.31-27.941a27.79,27.79,0,0,0,8.594-15.318,46.589,46.589,0,0,0,.768-8.5" transform="translate(-628.553 -183.06)" fill="none" stroke="#535461" stroke-miterlimit="10" stroke-width="2"/>
        <path id="Path_970" data-name="Path 970" d="M921.122,190.139c-.8,2-6.761,6.336-6.761,6.336s-1.281-7.252-.476-9.251a3.9,3.9,0,1,1,7.236,2.923Z" transform="translate(-685.956 -151.254)" fill="#6c63ff"/>
        <path id="Path_971" data-name="Path 971" d="M922.375,235.882c-1.762,1.238-9.115,1.645-9.115,1.645s2.865-6.787,4.627-8.026a3.9,3.9,0,1,1,4.489,6.378Z" transform="translate(-685.692 -183.518)" fill="#6c63ff"/>
        <path id="Path_972" data-name="Path 972" d="M893.861,304.9c-2.147.181-8.7-3.189-8.7-3.189s5.9-4.411,8.047-4.592a3.9,3.9,0,0,1,.654,7.776Z" transform="translate(-665.06 -233.729)" fill="#6c63ff"/>
        <path id="Path_973" data-name="Path 973" d="M858.213,353.715c-2.086.531-9.113-1.666-9.113-1.666s5.068-5.344,7.154-5.886a3.9,3.9,0,1,1,1.959,7.553Z" transform="translate(-638.583 -269.655)" fill="#6c63ff"/>
        <path id="Path_974" data-name="Path 974" d="M883.266,236.894c.872,1.969,6.968,6.112,6.968,6.112s1.036-7.292.165-9.261a3.9,3.9,0,0,0-7.133,3.157Z" transform="translate(-663.45 -185.561)" fill="#6c63ff"/>
        <path id="Path_975" data-name="Path 975" d="M841.77,291.11c1.422,1.618,8.475,3.739,8.475,3.739s-1.191-7.268-2.612-8.887a3.9,3.9,0,1,0-5.863,5.148Z" transform="translate(-632.488 -224.571)" fill="#6c63ff"/>
        <path id="Path_976" data-name="Path 976" d="M812.163,353.772c1.127,1.834,7.72,5.116,7.72,5.116s.056-7.364-1.063-9.2a3.9,3.9,0,0,0-6.644,4.085Z" transform="translate(-611.091 -271.043)" fill="#6c63ff"/>
        <path id="Path_977" data-name="Path 977" d="M784.44,140.574c.441-1.618.973-3.245,1.345-4.884C785.338,137.33,784.8,138.961,784.44,140.574Z" transform="translate(-591.106 -115.208)" fill="url(#linear-gradient)"/>
        <path id="Path_978" data-name="Path 978" d="M389.86,99.615c-.037-.064-.064-.128-.093-.186h0c0-.027-.026-.048-.037-.074a1.665,1.665,0,0,1-.178.072c-.117.045-.237.088-.359.122s-.173.053-.266.074a1.549,1.549,0,0,1-.237.061l.021.048c.1-.021.194-.04.292-.066l.027.33c.112,0,.215-.016.316-.016a1.31,1.31,0,0,1,.144,0h.531C389.966,99.86,389.908,99.735,389.86,99.615Zm53.948,85.872c-1.249-1.682-3.742-19.737-3.742-19.737s-4.9-12.838-3.566-17.962-3.651-18.233-3.651-18.233-3.3-1.432-3.473-3.558c0,0-13.455-4.252-14.085-7.441-.51-2.615-8.855-4.491-11.853-5.084-.914-3.689-1.834-7.13-2.511-9.009-.183-.585-.356-1.09-.516-1.488-1.145-2.923-4.685-3.189-7.252-2.955a3.955,3.955,0,0,0-.609-1.39.763.763,0,0,0-.242-.369,1.417,1.417,0,0,0-.175-.128.84.84,0,0,0-.181-.229,1.278,1.278,0,0,0-.239-.17,1.592,1.592,0,0,0-.191-.088,2.554,2.554,0,0,0-.476-.13,3.917,3.917,0,0,0-.574-.074,3.5,3.5,0,0,0,1.225-.9,2.554,2.554,0,0,0,.5-.925,2.722,2.722,0,0,0,.112-.872,2.254,2.254,0,0,1-.239.343,9.825,9.825,0,0,0-.866-3.545,10.489,10.489,0,0,1-.234-4.691h0c.356-2.355,1.238-4.736,1.836-7.133a.174.174,0,0,0,0-.04,18.516,18.516,0,0,0,.579-3.638,16.055,16.055,0,0,0-1.552-7.213c-.906-2-2.243-3.97-4.289-4.784a15.381,15.381,0,0,0-4.861-.617c-3.673-.229-7.175-1.52-10.667-2.695s-7.085-2.243-10.76-2.038-7.457,1.977-9.134,5.23a32.76,32.76,0,0,1-1.472,3.1c-1.191,1.8-3.322,2.7-5.1,3.941a10.085,10.085,0,0,0-3.986,5.105,6.811,6.811,0,0,0-.144,3.495h0a6.27,6.27,0,0,0,.223.771A5.461,5.461,0,0,0,342.8,82.23a5.635,5.635,0,0,0,1.313,1.018h0a7.724,7.724,0,0,0,1.94.755c-.024.08-.048.165-.074.247-.043.136-.08.266-.12.412-.088.327-.17.659-.239.994a.32.32,0,0,0,0,.072,21.7,21.7,0,0,0-.489,4.6,21.213,21.213,0,0,0,.112,2.19h0a22.151,22.151,0,0,0,20.965,19.844c.377.019.757.029,1.143.029h.531c.173.229.343.462.5.691s.311.462.452.691l-.385-.4h0l-.385-.353a3.126,3.126,0,0,1-.348.4,6.464,6.464,0,0,0-.768-.218h0a9.848,9.848,0,0,0-4.993.332,21.84,21.84,0,0,0-7.425,4.239l-14.167,8.5-7.664,4.661-2.761,6.75s-2.076,8.02-4.385,17.21c-.09.027-.178.053-.266.085a4.968,4.968,0,0,0-.563-.032,5.179,5.179,0,0,0-5.187,4.972c-4.592,5.581-4.853,11.162-3.774,13.723h0a3.658,3.658,0,0,0,.367.683,64.516,64.516,0,0,1,3.367,6.455c-.035.231-.056.425-.066.571a1.407,1.407,0,0,0,0,.144s.8,12.041-1.86,15.493a2.675,2.675,0,0,0,0,2.836h0c1.781,3.938,8.82,9.2,8.82,9.2s8.443-.045,13.147-.558c-.013.473-.024.943-.035,1.4-.106,4.645-.106,8.539-.106,8.539l-.175,4.871s-1.595,10.266-2.392,13.1c-.5,1.775.077,18.212.582,30.3H420.6c.978-7.149-.4-28.869-.4-28.869a57.071,57.071,0,0,1-1.358-10.51.04.04,0,0,1,0-.035c0-.428,0-.845.016-1.254l.6-.021,1.084-.037h.1s.027-.1.088-.266h0a5.079,5.079,0,0,1,.582-1.161,2.881,2.881,0,0,1,2.272-1.4,6.154,6.154,0,0,0,2.58-1.228.048.048,0,0,0,.021,0c2.825-1.911,6.559-5.437,7.465-6.017,1.246-.8,7.215-6.112,7.215-6.112s.89-1.127,1.839-2.485l.034-.048c1.18-1.7,2.434-3.734,2.126-4.374-.532-1.148.356-3.893.356-3.893C447.993,193.893,445.057,187.17,443.808,185.488Zm-51.388-81.74a1.06,1.06,0,0,1,.048.244c-.066-.088-.133-.181-.2-.266l-.064-.085-.045-.064.1-.138v.019h0A.922.922,0,0,1,392.419,103.748Zm-.893-2.355c-.29.058-.518.112-.667.151-.189-.335-.369-.67-.531-1.01A7.707,7.707,0,0,1,391.526,101.393Zm-.5.42a.058.058,0,0,1,0-.016l.021.016h0c.109.072.215.141.314.213h0c.088.064.167.125.247.189a2.54,2.54,0,0,1-.17.266c-.093-.146-.181-.287-.266-.433A.955.955,0,0,1,391.027,101.813Zm-1.594-3.279a7.861,7.861,0,0,1,1.544,0h0a1.168,1.168,0,0,1,.2.024h0a2.209,2.209,0,0,1,.423.109,3.088,3.088,0,0,1,.561,1.491l-.144.021-.141.027c-.266.045-.531.09-.739.133l-.266.056c-.353.077-.558.136-.566.138-.035-.072-.069-.138-.106-.207-.058-.114-.12-.231-.173-.345s-.122-.245-.178-.364c-.037-.064-.064-.128-.093-.186h0c0-.027-.027-.048-.037-.074a.642.642,0,0,1-.04-.088c-.162-.33-.311-.659-.454-.983-.016-.032-.029-.066-.042-.1l.2-.013v.069ZM326.027,263.39a65.924,65.924,0,0,0-1.105-12.256c-.34-1.709-.691-3.418-1.047-5.1-.09-.42-.178-.834-.266-1.249l-.819.109h-.074c-2.232-10.526-4.566-19.8-4.566-19.8s-4.635-17.7-4.1-19.108a3.418,3.418,0,0,0-.215-1.4c-1.121-4.023-5.8-15.111-7.441-18.9h0a.15.15,0,0,0-.019-.048h0c-.266-.635-.457-1.063-.516-1.188l.385-5.655.021-.34.051-.723-.021-.019.021-.335a38.772,38.772,0,0,0-10.9-5.711c-.266-.1-.547-.189-.826-.279.343-2.288.8-4.871,1.39-7.388.056-.252.117-.5.181-.744h0c.056-.247.12-.486.183-.728.1-.393.21-.781.322-1.164.369-.117.733-.247,1.092-.385l.138-.053a19.613,19.613,0,0,0,11.959-22.855h0a19.5,19.5,0,0,0-3.423-7.215h0c-.122-.165-.252-.33-.383-.492s-.287-.343-.433-.508c.768-1.746,1.674-3.407,1.749-5.105a5.229,5.229,0,0,0,0-.646h0v-.027a5.458,5.458,0,0,0-1.709-3.359,11.424,11.424,0,0,0-6.328-2.982c-2.341-.415-4.728-.425-7.082-.7-3.9-.468-7.707-1.672-11.611-2.041a27.588,27.588,0,0,0-14.04,2.392c-2.9,1.329-5.847,3.651-6.022,6.838-.143,2.634,1.69,5.158,1.228,7.76-.46,2.557-3.064,4.568-2.836,7.154a5.134,5.134,0,0,0,1.254,2.719h0c.223.266.46.531.7.8a11.5,11.5,0,0,1,2.517,3.226c.021.053.042.106.061.159a3,3,0,0,1-.864,3.537.04.04,0,0,1,.013.019h0c.016.021.032.037.045.058a.019.019,0,0,0,0-.013,2.907,2.907,0,0,0,1.517.946l.226.069c-.183.2-.356.407-.532.625l-.114.151a11.058,11.058,0,0,0-.8,1.236c-.136.239-.266.478-.375.718a9.012,9.012,0,0,0-.784,2.3c-.284,1.759.117,3.593-.314,5.315-.531,2.126-2.214,3.758-3.162,5.732-1.8,3.721-.779,8.087-.417,12.2.492,5.581-.306,11.186-1.1,16.729q-.632,4.422-1.265,8.852L252.4,226.748c-.388,2.716-.848,5.581-2.658,7.678h.019a.023.023,0,0,1-.019.021,5.555,5.555,0,0,0,1.711.441h0c2.363.237,4.866-.906,6.992-2.155a33.039,33.039,0,0,0,4.765-3.346q-.327,1.2-.7,2.6a.138.138,0,0,1,0,.027h0c-3,11.427-7.826,32.377-7.826,32.377s-.438.912-1.007,2.27h74.942c-.877-1.063-1.693-2.081-2.331-2.9ZM270.538,157.727c.019-.032.032-.061.051-.09v.577h0a1.966,1.966,0,0,1-.043.327v.024l.266.1.308.128h0q2.732,1.079,5.533,1.953c.191.061.385.12.579.175l.04.33c.048.338.093.68.136,1.023v.027c.12.949.237,1.895.34,2.82,0,0-4.879-1.86-4.818.965a1.393,1.393,0,0,0,0,.151,1.268,1.268,0,0,0,0,.2,14.084,14.084,0,0,0,.872,4.175.189.189,0,0,1-.043.074,1.453,1.453,0,0,0-.117.821,8.072,8.072,0,0,0,.112,1.419c-.143.088-.284.175-.425.266h0c-.106.066-.207.141-.311.215a39.469,39.469,0,0,0-2.549-6.569,11.143,11.143,0,0,1-1.544-4.722,2.67,2.67,0,0,1,.013-.324,5.579,5.579,0,0,1,.271-1.406c.061-.173.128-.343.2-.51a12.511,12.511,0,0,1,.582-1.164h0c.138-.25.284-.5.425-.747.045-.074.088-.151.13-.226ZM389.86,99.615c-.037-.064-.064-.128-.093-.186h0c0-.027-.026-.048-.037-.074a1.665,1.665,0,0,1-.178.072c-.117.045-.237.088-.359.122s-.173.053-.266.074l-.237.061.021.048c.1-.021.194-.04.292-.066l.027.33c.112,0,.215-.016.316-.016h.675C389.966,99.86,389.908,99.735,389.86,99.615Z" transform="translate(-198.504 -58.66)" fill="url(#linear-gradient-2)"/>
        <path id="Path_979" data-name="Path 979" d="M525.378,355.7l-1.595.7S513.39,396.786,513.39,400.05s22.039,21.422,22.039,21.422l3.439-23.211S533.93,345.034,525.378,355.7Z" transform="translate(-392.088 -275.715)" fill="#e8f5ff"/>
        <path id="Path_980" data-name="Path 980" d="M690.688,223.919l-9.208-4.8a18.447,18.447,0,0,0-2.7-6.152,13.706,13.706,0,0,0-5.371-4.853c-5.642-2.53,23.865-15.81,23.865-15.81a48.012,48.012,0,0,0,1.64,4.7c1.52,3.752,4.042,8.605,7.292,9.987C711.73,209.343,690.688,223.919,690.688,223.919Z" transform="translate(-509.056 -156.774)" fill="#ffc1c7"/>
        <path id="Path_981" data-name="Path 981" d="M698.913,197a22,22,0,0,1-20.133,15.958,13.705,13.705,0,0,0-5.371-4.853c-5.642-2.53,23.865-15.81,23.865-15.81A47.947,47.947,0,0,0,698.913,197Z" transform="translate(-509.056 -156.774)" opacity="0.1"/>
        <path id="Path_982" data-name="Path 982" d="M652.991,124.04a21.882,21.882,0,1,1-6.41-15.572A21.987,21.987,0,0,1,652.991,124.04Z" transform="translate(-462.305 -90.515)" fill="#ffc1c7"/>
        <path id="Path_983" data-name="Path 983" d="M637.89,230.957l-6,13.989-5.288,9.285H609.678l-4.938-12.695,2-13.165H619.67l8.347-.47,2.82-.941,1.818,1.031Z" transform="translate(-444.03 -166.634)" fill="#575a89"/>
        <path id="Path_984" data-name="Path 984" d="M738.56,230.462s3.739.8.391,3.542-14.9,11.475-14.9,11.475,4.058,3.614,3.218,7.848l13.444-7.494,2.392-11.991S743.373,230.239,738.56,230.462Z" transform="translate(-546.765 -184.788)" opacity="0.1"/>
        <path id="Path_985" data-name="Path 985" d="M702.985,287l-8.552,1.411s1.765,6.524.882,8.376a1.259,1.259,0,0,0-.066.178L691.76,306.4l2.615,7.407,9.051-12.344-3.085-4.672a43,43,0,0,1,5.2-5.82C707.482,289.469,702.985,287,702.985,287Z" transform="translate(-523.056 -226.307)" opacity="0.1"/>
        <path id="Path_986" data-name="Path 986" d="M702.985,285.63l-8.552,1.408s1.765,6.524.882,8.377a1.254,1.254,0,0,0-.066.178l-3.489,9.432,2.615,7.406,9.051-12.352-3.085-4.672a43,43,0,0,1,5.2-5.82C707.482,288.088,702.985,285.63,702.985,285.63Z" transform="translate(-523.056 -225.302)" fill="#dce6f2"/>
        <path id="Path_987" data-name="Path 987" d="M738.919,227.812s3.739.8.388,3.542-15.257,12.179-15.257,12.179,4.409,2.91,3.572,7.141l13.444-7.492,2.392-11.991S743.724,227.589,738.919,227.812Z" transform="translate(-546.765 -182.842)" fill="#575a89"/>
        <path id="Path_988" data-name="Path 988" d="M670.547,273.18s.816,1.525,4.417,4.276c0,0-6,3.189-3.7,7.672l-9.171-2.392-1.411-4.409Z" transform="translate(-500.236 -216.16)" opacity="0.1"/>
        <path id="Path_989" data-name="Path 989" d="M669.225,271.86s.816,1.525,4.417,4.276c0,0-6,3.173-3.7,7.67l-9.168-2.392-1.411-4.406Z" transform="translate(-499.267 -215.191)" fill="#575a89"/>
        <path id="Path_990" data-name="Path 990" d="M694.83,292.466l-6,13.989-5.278,9.285H666.618l-4.938-12.695,2-13.165h3.6c-.058,3.072,1.063,6.681.991,8.023-.122,2.206,3.29,14.106,3.29,14.106s7.141-11.55,9.96-12.578c1.773-.646,5.528-6.019,8.076-9.931Z" transform="translate(-500.97 -228.143)" opacity="0.1"/>
        <path id="Path_991" data-name="Path 991" d="M638.333,351.572l-.609.765s4.409,22.129,3.189,27.154a14.265,14.265,0,0,0-.353,2.759v.04a53.2,53.2,0,0,0,1.329,11.749s1.233,19.559.531,27.6H559.873c-.484-11.9-1-27.306-.531-29.015.8-2.82,2.392-13.048,2.392-13.048l.175-4.847s0-4.685.144-9.9c.061-2.347.151-4.81.282-6.995a36.935,36.935,0,0,1,.723-6.2,13.663,13.663,0,0,0,.34-2.626,1.364,1.364,0,0,1,.016-.252c0-.266.027-.553.037-.848v-.266c.05-1.711.032-3.742-.024-5.847v-.348c-.045-1.579-.112-3.189-.186-4.72-.231-4.784-.531-8.828-.531-8.828L552.57,294.308l2.732-6.729,7.582-4.645,14.018-8.464c6.838-5.621,11.34-4.946,13.056-4.329a4.543,4.543,0,0,1,.489.2c.053.027.1.048.135.072a1.116,1.116,0,0,1,.157.09h0a3.238,3.238,0,0,0-1.191.981,4.339,4.339,0,0,0-.736,1.595,7.41,7.41,0,0,0-.189,1.087c-.034.385-.048.784-.048,1.185a20.555,20.555,0,0,0,.226,2.628v.058c.088.622.2,1.23.3,1.8a.123.123,0,0,0,0,.029c.122.667.244,1.284.327,1.815.016.1.029.183.043.266a6.086,6.086,0,0,1,.082,1.063,12.926,12.926,0,0,0,.345,2.551c.069.351.149.725.237,1.116.12.532.25,1.111.391,1.7.077.324.159.659.244.991.032.133.066.266.1.4l.053.21c.566,2.251,1.18,4.491,1.557,5.847.223.8.364,1.289.364,1.289a99.221,99.221,0,0,1,7.2-10.154c.048-.053.09-.1.136-.151.316-.364.627-.7.925-.989a5.462,5.462,0,0,1,1.706-1.281,1.862,1.862,0,0,0,.29-.136c1.307-.741,3.418-3.434,5.392-6.253.194-.266.383-.555.574-.829.438-.632.864-1.268,1.265-1.876.308-.465.6-.917.882-1.347,1.329-2.068,2.264-3.609,2.264-3.609l1.844-.082.322-.016h.215l8.374-.388s.361.061.957.181a.17.17,0,0,1,.1.021c2.971.59,11.225,2.458,11.73,5.049.616,3.173,13.931,7.406,13.931,7.406.175,2.126,3.436,3.527,3.436,3.527s4.938,13.048,3.617,18.161c-1.3,5.049,3.4,17.54,3.521,17.89h0l-.9,1.137Z" transform="translate(-420.856 -213.633)" fill="#e8f5ff"/>
        <path id="Path_992" data-name="Path 992" d="M747.721,225.449s8.151-2.312,10,2.448,6,23.981,6,23.981-10.758,2.028-13.577,0a8.124,8.124,0,0,0-5.732-1.5l-6.083,4.143-1.8-.532s9.732-14.468,11.847-19.384S751.207,227.492,747.721,225.449Z" transform="translate(-555.929 -180.701)" opacity="0.1"/>
        <path id="Path_993" data-name="Path 993" d="M746.42,221.449s8.156-2.312,10.016,2.448,6,23.981,6,23.981-10.755,2.028-13.577,0a8.116,8.116,0,0,0-5.73-1.5l-6.088,4.143-1.8-.532s9.732-14.468,11.847-19.384S749.907,223.5,746.42,221.449Z" transform="translate(-554.981 -177.764)" fill="#e8f5ff"/>
        <path id="Path_994" data-name="Path 994" d="M571.177,511.55s6.083,1.5,7.231,4.938-4.5,3.526-4.5,3.526S570.473,513.931,571.177,511.55Z" transform="translate(-434.449 -391.183)" opacity="0.1"/>
        <path id="Path_995" data-name="Path 995" d="M623.615,607.09s-14.9,30.506-11.459,33.416S623.615,607.09,623.615,607.09Z" transform="translate(-464.229 -461.333)" opacity="0.1"/>
        <path id="Path_996" data-name="Path 996" d="M734,522.5s11.9,29.631,9.522,34.208,5.113,0,5.113,0Z" transform="translate(-554.071 -399.223)" opacity="0.1"/>
        <path id="Path_997" data-name="Path 997" d="M711.771,632.64s-40.2,1.94-28.475,14.459,35.794.532,35.794.532Z" transform="translate(-515.267 -480.093)" fill="#ffc1c7"/>
        <path id="Path_998" data-name="Path 998" d="M655.025,124.048a21.882,21.882,0,0,1-1.666,8.4c-.369.043-.739.069-1.095.085-.531-1.167-.247-2.514-.236-3.8s-.462-2.793-1.7-3.139c-2.463-.694-4.164,3.912-6.593,3.08-1.86-.632-1.374-3.455-2.445-5.084-.848-1.289-2.546-1.653-3.867-2.461-2.809-1.725-2.724-4.483-4.029-7.093-1.366-2.735-4.252-1.927-6.758-.314-1.9,1.228-3.545,2.873-5.581,3.851a13.805,13.805,0,0,1-5.7,1.2,12.514,12.514,0,0,1-3.572-.377,21.986,21.986,0,0,1,43.232,5.642Z" transform="translate(-464.339 -90.523)" opacity="0.1"/>
        <path id="Path_999" data-name="Path 999" d="M614.084,86.616c-1.905,1.228-3.545,2.87-5.581,3.853a13.846,13.846,0,0,1-5.7,1.2c-2.392.053-4.967-.367-6.6-2.094a6.368,6.368,0,0,1-1.225-6.139,9.97,9.97,0,0,1,3.946-5.084c1.789-1.257,3.864-2.126,5.049-3.925a31.712,31.712,0,0,0,1.451-3.085c1.666-3.24,5.414-4.993,9.036-5.211s7.212.861,10.662,2.03,6.926,2.456,10.566,2.7a15.067,15.067,0,0,1,4.81.614c2.022.821,3.349,2.785,4.252,4.784a15.993,15.993,0,0,1,1.536,7.175c-.223,5.254-3.694,10.409-2.169,15.443.4,1.342,1.161,2.719.757,4.061-.59,1.959-3.117,2.405-5.161,2.5-.532-1.167-.247-2.517-.237-3.8s-.462-2.793-1.7-3.139c-2.466-.688-4.167,3.909-6.591,3.08-1.847-.635-1.369-3.455-2.442-5.084-.848-1.292-2.549-1.653-3.867-2.461-2.809-1.725-2.724-4.483-4.029-7.093C619.482,84.192,616.593,85,614.084,86.616Z" transform="translate(-451.777 -64.115)" fill="#99607e"/>
        <path id="Path_1000" data-name="Path 1000" d="M509.147,513.085l-2.028.707s.8,11.991-1.86,15.43,8.727,11.988,8.727,11.988,15.6-.088,16.046-1.329-.8-22.217-.8-22.217-8.376-3.263-7.672-8.464c0,0-2.557,12.254-6.346,11.725S507.125,517.231,509.147,513.085Z" transform="translate(-385.823 -389.457)" fill="#e8f5ff"/>
        <ellipse id="Ellipse_134" data-name="Ellipse 134" cx="5.35" cy="4.892" rx="5.35" ry="4.892" transform="translate(124.738 125.392)" opacity="0.1"/>
        <path id="Path_1001" data-name="Path 1001" d="M516.554,452.582s-1.063-32.443-10.316-25.215-9.344,15.873-7.582,18.427,7.412,15.339,7.412,15.339h0a6.466,6.466,0,0,0,9.567-4.252Z" transform="translate(-380.618 -328.601)" fill="#ffc1c7"/>
        <path id="Path_1002" data-name="Path 1002" d="M586.968,213.579a.782.782,0,0,0-.239-.367c-.457-.417-1.44-.563-2.923-.436l.061.7c1.977-.17,2.368.223,2.418.29v.066l.061.088a2.965,2.965,0,0,1,.531,2.339c-.433,2.166-3.093,3.891-3.12,3.909l-.064.037-.04.061c-1.148,1.7-7.64,6.511-9.339,7.755l-.149-.17c-.76.659-7.441,6.508-7.8,8.749-.234,1.406-1.818,1.951-2.392,2.1a15.015,15.015,0,0,1-3.6-3.779c-.959-1.65,2.9-4.871,3.242-6.128l-.531-.545c-.056.2-5.015,4.837-3.635,7.2a15.775,15.775,0,0,0,3.832,4.063c-.226,2.052-1.632,14.1-3.792,16.952-2.684,3.548-4.94,21.428-4.69,27.67.221,5.546-1.228,16.022-6.065,20.521a7.752,7.752,0,0,1-6.4,2.126h-.117a18.875,18.875,0,0,1-12.979-4.252c-4.823-4.058-7.555-10.681-8.124-19.69H521l-.048-2.623a5.116,5.116,0,1,0-.763.061h.058l.048,2.607-.234.016c.585,9.3,3.455,16.182,8.5,20.431a19.665,19.665,0,0,0,13.715,4.489,9.849,9.849,0,0,0,1.063.058,8.717,8.717,0,0,0,6.112-2.458c5.094-4.744,6.644-15.6,6.4-21.34-.266-6.615,2.1-23.851,4.478-26.99,2.328-3.08,3.739-15.081,3.986-17.407.842-.237,2.748-.983,3.072-2.923.234-1.4,4.7-5.727,7.441-8.121l-.082-.1a103.429,103.429,0,0,0,8.35-6.665c.707-.678,1.408-1.355,2.142-2a6.858,6.858,0,0,0,2.3-3.489A3.627,3.627,0,0,0,586.968,213.579Z" transform="translate(-393.308 -171.776)" opacity="0.1"/>
        <path id="Path_1003" data-name="Path 1003" d="M684.258,281.254A16.261,16.261,0,0,1,680.173,277c-1.377-2.368,3.582-7,3.636-7.2l.531.545c-.337,1.254-4.2,4.478-3.24,6.126a15.446,15.446,0,0,0,3.782,3.92Z" transform="translate(-514.372 -213.678)" fill="#353146"/>
        <path id="Path_1004" data-name="Path 1004" d="M735.615,227.562l-.415-.571c.085-.061,8.432-6.1,9.748-8.052l.043-.058.061-.04c.027-.019,2.687-1.741,3.12-3.909a2.947,2.947,0,0,0-.531-2.336l-.061-.09v-.064c-.053-.069-.444-.46-2.421-.29l-.061-.7c1.486-.128,2.466.019,2.923.436a.8.8,0,0,1,.242.369,3.63,3.63,0,0,1,.6,2.82,6.818,6.818,0,0,1-2.3,3.489c-.731.646-1.435,1.329-2.139,2A111.651,111.651,0,0,1,735.615,227.562Z" transform="translate(-554.952 -170.8)" fill="#e8f5ff"/>
        <rect id="Rectangle_528" data-name="Rectangle 528" width="0.704" height="4.281" transform="translate(126.6 107.536) rotate(-1.05)" fill="#e8f5ff"/>
        <circle id="Ellipse_135" data-name="Ellipse 135" cx="5.142" cy="5.142" r="5.142" transform="translate(121.4 97.887)" fill="#6c63ff"/>
        <circle id="Ellipse_136" data-name="Ellipse 136" cx="4.271" cy="4.271" r="4.271" transform="translate(122.272 98.759)" fill="#e8f5ff"/>
        <path id="Path_1005" data-name="Path 1005" d="M555.943,348.352a9.848,9.848,0,0,1-1.063-.056,19.7,19.7,0,0,1-13.715-4.489c-5.049-4.252-7.914-11.124-8.5-20.434l1.063-.066c.569,9.009,3.3,15.634,8.127,19.69a18.948,18.948,0,0,0,12.977,4.252h.117a7.768,7.768,0,0,0,6.4-2.126c4.834-4.5,6.282-14.975,6.062-20.521-.266-6.248,1.991-24.128,4.677-27.673,2.352-3.107,3.811-17.109,3.827-17.25l.04-.4.393-.069c.024,0,2.32-.436,2.607-2.153.372-2.238,7.042-8.087,7.8-8.749l.694.8c-2.756,2.392-7.218,6.718-7.441,8.124-.324,1.945-2.23,2.689-3.069,2.923-.266,2.328-1.666,14.327-3.986,17.407-2.376,3.139-4.744,20.375-4.478,26.99.229,5.735-1.3,16.6-6.4,21.34A8.72,8.72,0,0,1,555.943,348.352Z" transform="translate(-406.237 -212.584)" fill="#353146"/>
        <g id="Group_269" data-name="Group 269" transform="translate(143.132 18.948)" opacity="0.1">
          <path id="Path_1006" data-name="Path 1006" d="M783,147.693c.436-1.61.962-3.232,1.329-4.863C783.89,144.47,783.361,146.083,783,147.693Z" transform="translate(-733.181 -139.399)"/>
          <path id="Path_1007" data-name="Path 1007" d="M640.909,150.869c-.532-1.167-.247-2.517-.237-3.8s-.462-2.78-1.7-3.139c-2.466-.688-4.167,3.912-6.591,3.08-1.86-.635-1.369-3.455-2.442-5.084-.848-1.292-2.546-1.653-3.864-2.461-2.812-1.725-2.727-4.483-4.029-7.093-1.369-2.737-4.252-1.929-6.761-.314-1.906,1.228-3.545,2.873-5.581,3.853a13.846,13.846,0,0,1-5.7,1.2c-2.378.056-4.967-.367-6.6-2.094a6.17,6.17,0,0,1-1.454-5.1c-.045.125-.085.25-.125.375a6.385,6.385,0,0,0,1.225,6.139c1.634,1.727,4.223,2.147,6.6,2.094a13.858,13.858,0,0,0,5.7-1.2c2.041-.983,3.681-2.626,5.581-3.853,2.509-1.616,5.395-2.424,6.761.314,1.3,2.61,1.22,5.368,4.029,7.093,1.329.8,3.016,1.169,3.867,2.461,1.063,1.634.593,4.449,2.442,5.084,2.421.829,4.122-3.768,6.588-3.08,1.233.345,1.709,1.86,1.7,3.139s-.29,2.631.237,3.8c2.044-.093,4.571-.531,5.164-2.5a2.861,2.861,0,0,0,.112-.869C644.969,150.4,642.748,150.787,640.909,150.869Z" transform="translate(-595.536 -129.92)"/>
        </g>
        <path id="Path_1008" data-name="Path 1008" d="M825.944,372.437l3.085,3.263s2.469,17.983,3.7,19.666,4.146,8.374,1.411,13.4c0,0-.882,2.735-.353,3.88s-3.965,6.878-3.965,6.878-5.908,5.289-7.143,6.083-7.757,7.141-9.96,7.228-2.923,2.822-2.923,2.822l-12.432.441s-6.867-.359-8.36.611c0,0,.8-10.492-6.875-17.37l9.785-3.527s3.7-1.594,4.85-3.261a5.988,5.988,0,0,1,2.923-2.2s2.732-1.94,2.82-3S805.848,405,805.848,405l-1.842-15.719.97-26.1s3.085-21.866,9.609-20.63S825.944,372.437,825.944,372.437Z" transform="translate(-589.41 -267.058)" opacity="0.1"/>
        <path id="Path_1009" data-name="Path 1009" d="M829.944,372.437l3.085,3.263s2.469,17.983,3.7,19.666,4.146,8.374,1.411,13.4c0,0-.88,2.735-.351,3.88s-3.968,6.878-3.968,6.878-5.908,5.289-7.143,6.083-7.757,7.141-9.96,7.228-2.923,2.822-2.923,2.822l-12.432.441s-6.872-.359-8.361.611c0,0,.8-10.492-6.875-17.37l9.785-3.527s3.7-1.594,4.85-3.261a5.988,5.988,0,0,1,2.923-2.2s2.732-1.94,2.82-3S809.848,405,809.848,405l-1.842-15.719.97-26.1s3.085-21.866,9.609-20.63S829.944,372.437,829.944,372.437Z" transform="translate(-592.347 -267.058)" fill="#e8f5ff"/>
        <path id="Path_1010" data-name="Path 1010" d="M907.84,551.8s9.081-2.392,11.462.531S907.84,551.8,907.84,551.8Z" transform="translate(-681.713 -420.063)" opacity="0.1"/>
        <path id="Path_1011" data-name="Path 1011" d="M899.88,569.44c3.085,2.161,12.607,2.248,12.607,2.248Z" transform="translate(-675.868 -433.689)" opacity="0.1"/>
        <path id="Path_1012" data-name="Path 1012" d="M917.46,610.08c.266.088,6.545,6.79,9.182,4.762S917.46,610.08,917.46,610.08Z" transform="translate(-688.776 -463.528)" opacity="0.1"/>
        <path id="Path_1013" data-name="Path 1013" d="M599.22,398.42s1.844,12.7.935,17.869,2.408,11.579,2.408,11.579Z" transform="translate(-455.109 -308.117)" opacity="0.1"/>
        <path id="Path_1014" data-name="Path 1014" d="M375.914,411.172c-2.126,1.666-3.678,5.61-4.8,9.944a106.976,106.976,0,0,0-2.6,16.328s-16.928-3.88-15.7-5.642c.776-1.108-.266-9.458-1.135-15.512-.518-3.577-.981-6.354-.981-6.354S381.734,406.585,375.914,411.172Z" transform="translate(-272.634 -315.706)" fill="#ffccd0"/>
        <path id="Path_1015" data-name="Path 1015" d="M375.914,409.845c-2.126,1.669-3.678,5.61-4.8,9.944a19.533,19.533,0,0,1-19.432-4.823c-.518-3.58-.981-6.357-.981-6.357S381.734,405.261,375.914,409.845Z" transform="translate(-272.634 -314.733)" opacity="0.1"/>
        <path id="Path_1016" data-name="Path 1016" d="M371.614,326.7a19.581,19.581,0,1,1-4.308-12.246A19.581,19.581,0,0,1,371.614,326.7Z" transform="translate(-259.234 -241.083)" fill="#ffccd0"/>
        <path id="Path_1017" data-name="Path 1017" d="M519.823,784.318h-5.581l-.47-9.857-.492-10.2s1.268-.189,3.287-.47l.816-.109h.066c.441,2.07.877,4.2,1.3,6.32a64.94,64.94,0,0,1,1.087,11.427v.781C519.849,782.918,519.833,783.627,519.823,784.318Z" transform="translate(-392.008 -576.309)" opacity="0.1"/>
        <path id="Path_1018" data-name="Path 1018" d="M340.5,582.626H270.51c.3-.688.5-1.105.5-1.105s5.6-24.5,8.446-34.861a.138.138,0,0,0,0-.027,41.452,41.452,0,0,1,1.286-4.159h0a1.429,1.429,0,0,1,.125-.266c1.408-2.291,3.173-4.76.7-8.286s-1.595-19.044-1.595-19.044,3-13.226,6.171-20.28a9.486,9.486,0,0,1,2.014-2.923,8.234,8.234,0,0,1,.882-.749h0a7.748,7.748,0,0,1,.739-.492l.051-.032a10.661,10.661,0,0,1,4.34-1.347,12.381,12.381,0,0,1,3.255.09,48.588,48.588,0,0,1,12.538,3.455c8.873,3.9,11.56,9.123,11.613,9.232h0l.021.045c.356.832,5.565,12.993,7.441,18.666a7.956,7.956,0,0,1,.646,2.8c-.531,1.408,4.055,19.041,4.055,19.041s2.126,8.5,4.252,18.472c.093.415.181.829.266,1.249.38,1.81.757,3.654,1.122,5.5a64.6,64.6,0,0,1,1.087,11.507Q340.533,580.914,340.5,582.626Z" transform="translate(-213.754 -374.616)" fill="#ff748e"/>
        <path id="Path_1019" data-name="Path 1019" d="M344.819,464.758s-4.829-1.86-4.77.962,1.177,4.172.824,4.584.175,2.881.175,2.881,6.524,0,9.522,1.35,14.048,4.055,15.459,4.879,6.644,4.518,6.644,4.518l.47-6.995a39.9,39.9,0,0,0-14.281-6.758A56.954,56.954,0,0,1,344.819,464.758Z" transform="translate(-264.812 -356.384)" opacity="0.1"/>
        <path id="Path_1020" data-name="Path 1020" d="M344.819,463.428s-4.829-1.86-4.77.962,1.177,4.172.824,4.584.175,2.881.175,2.881,6.524,0,9.522,1.353,14.048,4.055,15.459,4.877,6.644,4.518,6.644,4.518l.476-6.973a39.9,39.9,0,0,0-14.282-6.758A56.511,56.511,0,0,1,344.819,463.428Z" transform="translate(-264.812 -355.408)" fill="#ff748e"/>
        <path id="Path_1021" data-name="Path 1021" d="M412.85,528.43s9.227,9.99,8.757,12.756S412.85,528.43,412.85,528.43Z" transform="translate(-318.267 -403.577)" opacity="0.1"/>
        <path id="Path_1022" data-name="Path 1022" d="M435.024,741.85s-3.585,7.29-1.645,6.819S435.024,741.85,435.024,741.85Z" transform="translate(-332.918 -560.28)" fill="none"/>
        <path id="Path_1023" data-name="Path 1023" d="M330.63,664.22s-6.763,6.232-8.757,6.585,1.528,1.528,3.819.59,7.175-3.407,7.175-3.407Z" transform="translate(-251.035 -503.281)" opacity="0.1"/>
        <path id="Path_1024" data-name="Path 1024" d="M468.59,782.585H452.817c-2.206-1.913-4.292-3.686-5.621-4.752a18.343,18.343,0,0,1-4.637-6.237c-.221-.46-.412-.89-.574-1.281a21.362,21.362,0,0,1-.765-2.06l11.68-6.936a18.249,18.249,0,0,1,1.815,1.775l.141.162a4.8,4.8,0,0,1,1.27,2.347c.058.829,2.365,4.037,4.722,7.117,2.392,3.133,4.842,6.128,5,6.33h0s.4.55,1.063,1.4C467.381,781.057,467.955,781.791,468.59,782.585Z" transform="translate(-339.098 -574.576)" fill="#ffccd0"/>
        <path id="Path_1025" data-name="Path 1025" d="M367.333,314.479a11.393,11.393,0,0,0-1.137,3.986c-.21,4.066.13,13.157-4.372,15.2-2.23,1-4.616-1.2-7.061-1.254a5.741,5.741,0,0,0-4.446,2.474,26.769,26.769,0,0,0-2.519,4.629,31.625,31.625,0,0,1-2.442,4.119,10.368,10.368,0,0,1-.9,1.14,19.575,19.575,0,1,1,22.881-30.282Z" transform="translate(-259.26 -241.11)" opacity="0.1"/>
        <path id="Path_1026" data-name="Path 1026" d="M308.221,295.326c-.213,4.066.13,13.157-4.374,15.2-2.23,1-4.616-1.2-7.061-1.252a5.742,5.742,0,0,0-4.446,2.471,26.6,26.6,0,0,0-2.519,4.632,31.69,31.69,0,0,1-2.442,4.119,5.98,5.98,0,0,1-2,1.99c-1.467.765-3.245.335-4.818-.157q-3.061-.965-6.033-2.174a6.084,6.084,0,0,0,.069-.9c-.058.112-.122.215-.186.327l-.125.218c-.226.4-.446.8-.648,1.207-.077.157-.151.319-.218.481a6.113,6.113,0,0,0-.5,1.9c-.136,1.773.739,3.455,1.515,5.049,2.984,6.168,4.829,13.381,2.583,19.852-.973,2.814-2.658,5.315-3.888,8.034a25.956,25.956,0,0,0-1.815,15.355c.614,3.221,1.844,6.41,1.541,9.676-.531,5.621-5.379,9.8-10.234,12.679-2.623,1.547-5.833,2.923-8.618,1.7,1.775-2.073,2.232-4.94,2.615-7.646q1.571-11.069,3.149-22.148.63-4.409,1.257-8.818c.781-5.522,1.573-11.106,1.084-16.663-.356-4.1-1.361-8.443.415-12.15.938-1.964,2.61-3.59,3.131-5.706.428-1.719.029-3.548.311-5.3a9.019,9.019,0,0,1,.776-2.3,11.283,11.283,0,0,1,1.781-2.716,3.04,3.04,0,0,1-1.781-1.087,3.052,3.052,0,0,0,.8-3.681,11.313,11.313,0,0,0-2.487-3.213,6.2,6.2,0,0,1-1.948-3.508c-.226-2.58,2.352-4.579,2.806-7.125.46-2.591-1.358-5.11-1.212-7.733.17-3.17,3.083-5.474,5.958-6.811a27.107,27.107,0,0,1,13.894-2.392c3.875.367,7.624,1.565,11.488,2.03,2.331.266,4.693.292,7.008.7a11.258,11.258,0,0,1,6.264,2.971C313.61,286.92,308.465,290.606,308.221,295.326Z" transform="translate(-201.639 -218.688)" fill="#ffe0d0"/>
        <path id="Path_1027" data-name="Path 1027" d="M356.436,613.306c-1.355-.587-3.821-.237-8.055-1.525s-5.049-7.114-5.049-7.114v-.019h0c-.05-.133-.444-1-3.107-4.034-2.942-3.351-9.3-20.277-9.3-20.277s-5.639-6.056-5.461-8.289-1-8.172-.885-14.816,12.695-11.05,12.695-11.05c24.218-4.292,18.515,23.628,17.869,25.743s2.705,7.829,2.705,7.829c-.473,2.487,1.94,6.338,1.94,6.338s.585,3.407.7,4.7a.8.8,0,0,0,.04.175c.388,1.22,3.55,2.325,4.837,3,1.353.707,5.7,6.878,5.7,6.878C372.009,605.376,357.786,613.9,356.436,613.306Z" transform="translate(-253.447 -416.283)" opacity="0.1"/>
        <path id="Path_1028" data-name="Path 1028" d="M359.093,609.343c-1.353-.59-3.822-.237-8.052-1.528s-5.049-7.112-5.049-7.112v-.019h0c-.048-.136-.444-1-3.107-4.034-2.942-3.351-9.3-20.279-9.3-20.279s-5.639-6.054-5.464-8.286-1-8.172-.882-14.81,12.687-11.042,12.687-11.042c24.218-4.292,18.515,23.628,17.869,25.743s2.705,7.829,2.705,7.829c-.473,2.488,1.94,6.338,1.94,6.338s.585,3.407.707,4.7a.664.664,0,0,0,.037.175c.388,1.22,3.55,2.325,4.839,3,1.35.7,5.7,6.878,5.7,6.878C374.669,601.418,360.446,609.943,359.093,609.343Z" transform="translate(-255.4 -413.383)" fill="#ff748e"/>
        <path id="Path_1029" data-name="Path 1029" d="M376.8,598.32s10.58,11.161,13.341,11.161S376.8,598.32,376.8,598.32Z" transform="translate(-291.797 -454.894)" opacity="0.1"/>
        <path id="Path_1030" data-name="Path 1030" d="M410.932,734.294c-1.353-.59-3.822-.237-8.052-1.528s-5.049-7.112-5.049-7.112v-.019h0c2.8-1.86,9.9-7.114,12.7-9.036a19.606,19.606,0,0,0,4.518-4.64c.388,1.22,3.55,2.325,4.839,3,1.35.7,5.7,6.878,5.7,6.878C426.507,726.369,412.284,734.894,410.932,734.294Z" transform="translate(-307.239 -538.334)" fill="#ff748e"/>
        <g id="Group_270" data-name="Group 270" transform="translate(52.371 63.042)" opacity="0.1">
          <path id="Path_1031" data-name="Path 1031" d="M302,406.2c.013.021.032.04.048.061.08-.1.162-.2.247-.3a1.982,1.982,0,0,1-.295.236Z" transform="translate(-289.247 -376.695)"/>
          <path id="Path_1032" data-name="Path 1032" d="M272.929,437.374a10.025,10.025,0,0,1,1.64-4.071c-.484-.186-.967-.375-1.446-.571a6.02,6.02,0,0,0,.069-.9,10.329,10.329,0,0,0-1.674,4.132c-.136,1.775.739,3.455,1.515,5.049,2.987,6.165,4.829,13.378,2.583,19.852-.975,2.812-2.658,5.315-3.888,8.034a25.945,25.945,0,0,0-1.812,15.352c.609,3.224,1.842,6.41,1.539,9.676-.531,5.621-5.376,9.8-10.234,12.676-1.985,1.175-4.305,2.251-6.524,2.174a8.04,8.04,0,0,1-.686.943c2.788,1.23,6-.154,8.618-1.706,4.861-2.87,9.716-7.042,10.247-12.674.3-3.266-.93-6.452-1.541-9.676a25.966,25.966,0,0,1,1.807-15.353c1.222-2.716,2.923-5.222,3.888-8.034,2.246-6.474.4-13.686-2.583-19.852C273.673,440.82,272.793,439.149,272.929,437.374Z" transform="translate(-254.01 -395.69)"/>
          <path id="Path_1033" data-name="Path 1033" d="M366.009,296.584a7.675,7.675,0,0,0-.84-.744c3.221,4.178-1.43,7.728-1.661,12.225-.207,4.066.133,13.16-4.372,15.2-2.227,1.007-4.616-1.2-7.058-1.252a5.753,5.753,0,0,0-4.449,2.474,26.483,26.483,0,0,0-2.517,4.629,31.821,31.821,0,0,1-2.445,4.119,5.831,5.831,0,0,1-2,1.993c-1.462.763-3.24.335-4.815-.159q-2.3-.723-4.555-1.595a5.744,5.744,0,0,1-.069.826q2.974,1.212,6.035,2.174c1.573.494,3.351.922,4.815.159a5.98,5.98,0,0,0,2-2,31.3,31.3,0,0,0,2.442-4.117,26.516,26.516,0,0,1,2.519-4.632,5.753,5.753,0,0,1,4.446-2.471c2.445.053,4.834,2.259,7.061,1.252,4.5-2.036,4.162-11.13,4.372-15.2C365.164,304.743,370.309,301.059,366.009,296.584Z" transform="translate(-310.709 -295.84)"/>
        </g>
        <path id="Path_1034" data-name="Path 1034" d="M309.492,420.291c-.226.4-.446.8-.648,1.206-.077.157-.152.319-.218.481-1.393-1.4-4.784-4.738-6.676-5.772a11.334,11.334,0,0,1,1.781-2.716S308.24,415.874,309.492,420.291Z" transform="translate(-236.839 -319.183)" opacity="0.1"/>
        <path id="Path_1035" data-name="Path 1035" d="M309.617,418.127c-1.044-4.728-5.886-7.287-5.886-7.287a11.279,11.279,0,0,0-1.781,2.716c2,1.092,5.674,4.754,6.894,6Z" transform="translate(-236.839 -317.237)" fill="#ff748e"/>
      </g>
    </g>
  </g>
</svg>
